<svg width="375" height="181" viewBox="0 0 375 181" fill="none" xmlns="http://www.w3.org/2000/svg">
<g filter="url(#filter0_d_184_2435)">
<rect x="14" y="50" width="347" height="81" rx="22" fill="white"/>
</g>
<path d="M111.005 84H112.895V79.215L116.69 72.9H114.74L111.98 77.625L109.205 72.9H107.225L111.005 79.215V84ZM119.292 84.165C121.227 84.165 123.177 82.935 123.177 80.025C123.177 77.085 121.227 75.885 119.292 75.885C117.342 75.885 115.407 77.085 115.407 80.025C115.407 82.935 117.357 84.165 119.292 84.165ZM119.292 82.62C117.882 82.62 117.267 81.54 117.267 80.025C117.267 78.42 117.957 77.46 119.292 77.46C120.687 77.46 121.317 78.54 121.317 80.025C121.317 81.66 120.627 82.62 119.292 82.62ZM126.998 84.15C128.438 84.15 129.398 83.46 129.908 82.92V84H131.768V76.035H129.908V81.57C129.233 82.185 128.558 82.605 127.748 82.605C126.938 82.605 126.563 82.2 126.563 81.315V76.035H124.703V81.75C124.703 83.325 125.603 84.15 126.998 84.15ZM133.831 84H135.676V78.96C136.201 78.105 136.951 77.55 138.136 77.55C138.241 77.55 138.541 77.565 138.631 77.58L138.691 75.885H138.571C137.056 75.885 136.201 76.545 135.706 77.34H135.676V76.035H133.831V84ZM147.212 84.165C149.147 84.165 151.097 82.935 151.097 80.025C151.097 77.085 149.147 75.885 147.212 75.885C145.262 75.885 143.327 77.085 143.327 80.025C143.327 82.935 145.277 84.165 147.212 84.165ZM147.212 82.62C145.802 82.62 145.187 81.54 145.187 80.025C145.187 78.42 145.877 77.46 147.212 77.46C148.607 77.46 149.237 78.54 149.237 80.025C149.237 81.66 148.547 82.62 147.212 82.62ZM152.713 84H154.558V78.96C155.083 78.105 155.833 77.55 157.018 77.55C157.123 77.55 157.423 77.565 157.513 77.58L157.573 75.885H157.453C155.938 75.885 155.083 76.545 154.588 77.34H154.558V76.035H152.713V84ZM161.229 84.12C162.414 84.12 163.179 83.595 163.764 82.92C163.764 83.325 163.839 83.775 163.944 84H165.849C165.669 83.595 165.609 83.01 165.609 82.05V72.9H163.764V76.89C163.179 76.23 162.339 75.885 161.484 75.885C159.444 75.885 158.079 77.28 158.079 80.04C158.079 82.8 159.414 84.12 161.229 84.12ZM161.829 82.605C160.644 82.605 159.924 81.765 159.924 80.085C159.924 78.315 160.494 77.415 161.889 77.415C162.549 77.415 163.269 77.76 163.764 78.405V81.6C163.329 82.125 162.594 82.605 161.829 82.605ZM171.073 84.165C172.498 84.165 173.593 83.64 174.418 82.725L173.443 81.765C172.843 82.35 172.243 82.695 171.208 82.695C170.038 82.695 169.153 82.065 169.078 80.625H174.523V80.19C174.523 76.95 172.813 75.885 171.028 75.885C169.378 75.885 167.233 76.995 167.233 80.025C167.233 82.95 169.078 84.165 171.073 84.165ZM169.108 79.245C169.288 77.895 170.113 77.385 171.013 77.385C172.123 77.385 172.723 78.03 172.828 79.245H169.108ZM176.15 84H177.995V78.96C178.52 78.105 179.27 77.55 180.455 77.55C180.56 77.55 180.86 77.565 180.95 77.58L181.01 75.885H180.89C179.375 75.885 178.52 76.545 178.025 77.34H177.995V76.035H176.15V84ZM186.097 84H187.957V78.495C188.632 77.88 189.307 77.46 190.117 77.46C190.927 77.46 191.302 77.865 191.302 78.75V84H193.162V78.285C193.162 76.71 192.262 75.885 190.867 75.885C189.427 75.885 188.467 76.575 187.957 77.115V72.9H186.097V84ZM196.875 84.12C198.06 84.12 199.005 83.805 199.815 82.98C199.815 83.43 199.89 83.67 199.995 84H201.855C201.69 83.595 201.63 83.01 201.63 82.05V78.765C201.63 76.905 200.895 75.885 198.765 75.885C197.115 75.885 195.78 76.545 194.925 77.325L195.825 78.48C196.5 77.94 197.4 77.4 198.51 77.4C199.395 77.4 199.815 77.745 199.815 78.54V78.78C196.095 79.2 194.625 80.355 194.625 82.08C194.625 83.4 195.585 84.12 196.875 84.12ZM197.55 82.695C196.875 82.695 196.44 82.365 196.44 81.735C196.44 80.865 197.61 80.325 199.815 80.025V81.78C199.23 82.335 198.495 82.695 197.55 82.695ZM206.526 84.165C208.341 84.165 209.856 83.385 209.856 81.705C209.856 79.845 208.191 79.5 206.826 79.2C205.881 78.99 205.086 78.795 205.086 78.15C205.086 77.7 205.416 77.34 206.436 77.34C207.156 77.34 208.101 77.73 208.686 78.21L209.571 77.01C208.746 76.32 207.816 75.885 206.301 75.885C204.546 75.885 203.346 76.83 203.346 78.225C203.346 80.07 204.981 80.43 206.346 80.745C207.306 80.97 208.116 81.165 208.116 81.81C208.116 82.47 207.516 82.725 206.526 82.725C205.506 82.725 204.621 82.29 204.021 81.78L203.016 82.905C203.736 83.64 205.056 84.165 206.526 84.165ZM219.357 84.12C221.397 84.12 222.762 82.77 222.762 80.01C222.762 77.25 221.427 75.885 219.612 75.885C218.427 75.885 217.602 76.455 217.077 77.085V72.9H215.232V84H217.077V83.115C217.662 83.775 218.502 84.12 219.357 84.12ZM218.952 82.65C218.292 82.65 217.572 82.305 217.077 81.66V78.465C217.512 77.94 218.247 77.46 219.012 77.46C220.197 77.46 220.917 78.345 220.917 80.025C220.917 81.795 220.347 82.65 218.952 82.65ZM227.792 84.165C229.217 84.165 230.312 83.64 231.137 82.725L230.162 81.765C229.562 82.35 228.962 82.695 227.927 82.695C226.757 82.695 225.872 82.065 225.797 80.625H231.242V80.19C231.242 76.95 229.532 75.885 227.747 75.885C226.097 75.885 223.952 76.995 223.952 80.025C223.952 82.95 225.797 84.165 227.792 84.165ZM225.827 79.245C226.007 77.895 226.832 77.385 227.732 77.385C228.842 77.385 229.442 78.03 229.547 79.245H225.827ZM236.259 84.165C237.684 84.165 238.779 83.64 239.604 82.725L238.629 81.765C238.029 82.35 237.429 82.695 236.394 82.695C235.224 82.695 234.339 82.065 234.264 80.625H239.709V80.19C239.709 76.95 237.999 75.885 236.214 75.885C234.564 75.885 232.419 76.995 232.419 80.025C232.419 82.95 234.264 84.165 236.259 84.165ZM234.294 79.245C234.474 77.895 235.299 77.385 236.199 77.385C237.309 77.385 237.909 78.03 238.014 79.245H234.294ZM241.336 84H243.196V78.495C243.871 77.88 244.546 77.46 245.356 77.46C246.166 77.46 246.541 77.865 246.541 78.75V84H248.401V78.285C248.401 76.71 247.501 75.885 246.106 75.885C244.666 75.885 243.706 76.575 243.196 77.115V76.035H241.336V84ZM257.409 84.165C259.329 84.165 260.274 83.1 260.844 81.825L259.314 81.27C258.879 82.395 258.294 82.65 257.454 82.65C256.239 82.65 255.549 81.72 255.549 80.025C255.549 78.12 256.434 77.43 257.484 77.43C258.369 77.43 258.939 77.865 259.254 78.765L260.814 78.21C260.334 76.98 259.494 75.885 257.514 75.885C255.744 75.885 253.689 76.98 253.689 80.025C253.689 82.935 255.564 84.165 257.409 84.165ZM263.979 84.12C265.164 84.12 266.109 83.805 266.919 82.98C266.919 83.43 266.994 83.67 267.099 84H268.959C268.794 83.595 268.734 83.01 268.734 82.05V78.765C268.734 76.905 267.999 75.885 265.869 75.885C264.219 75.885 262.884 76.545 262.029 77.325L262.929 78.48C263.604 77.94 264.504 77.4 265.614 77.4C266.499 77.4 266.919 77.745 266.919 78.54V78.78C263.199 79.2 261.729 80.355 261.729 82.08C261.729 83.4 262.689 84.12 263.979 84.12ZM264.654 82.695C263.979 82.695 263.544 82.365 263.544 81.735C263.544 80.865 264.714 80.325 266.919 80.025V81.78C266.334 82.335 265.599 82.695 264.654 82.695ZM270.721 84H272.581V78.495C273.256 77.88 273.931 77.46 274.741 77.46C275.551 77.46 275.926 77.865 275.926 78.75V84H277.786V78.285C277.786 76.71 276.886 75.885 275.491 75.885C274.051 75.885 273.091 76.575 272.581 77.115V76.035H270.721V84ZM283.029 84.165C284.949 84.165 285.894 83.1 286.464 81.825L284.934 81.27C284.499 82.395 283.914 82.65 283.074 82.65C281.859 82.65 281.169 81.72 281.169 80.025C281.169 78.12 282.054 77.43 283.104 77.43C283.989 77.43 284.559 77.865 284.874 78.765L286.434 78.21C285.954 76.98 285.114 75.885 283.134 75.885C281.364 75.885 279.309 76.98 279.309 80.025C279.309 82.935 281.184 84.165 283.029 84.165ZM291.22 84.165C292.645 84.165 293.74 83.64 294.565 82.725L293.59 81.765C292.99 82.35 292.39 82.695 291.355 82.695C290.185 82.695 289.3 82.065 289.225 80.625H294.67V80.19C294.67 76.95 292.96 75.885 291.175 75.885C289.525 75.885 287.38 76.995 287.38 80.025C287.38 82.95 289.225 84.165 291.22 84.165ZM289.255 79.245C289.435 77.895 290.26 77.385 291.16 77.385C292.27 77.385 292.87 78.03 292.975 79.245H289.255ZM296.372 84H298.232V72.9H296.372V84ZM303.774 84.165C305.199 84.165 306.294 83.64 307.119 82.725L306.144 81.765C305.544 82.35 304.944 82.695 303.909 82.695C302.739 82.695 301.854 82.065 301.779 80.625H307.224V80.19C307.224 76.95 305.514 75.885 303.729 75.885C302.079 75.885 299.934 76.995 299.934 80.025C299.934 82.95 301.779 84.165 303.774 84.165ZM301.809 79.245C301.989 77.895 302.814 77.385 303.714 77.385C304.824 77.385 305.424 78.03 305.529 79.245H301.809ZM311.565 84.12C312.75 84.12 313.515 83.595 314.1 82.92C314.1 83.325 314.175 83.775 314.28 84H316.185C316.005 83.595 315.945 83.01 315.945 82.05V72.9H314.1V76.89C313.515 76.23 312.675 75.885 311.82 75.885C309.78 75.885 308.415 77.28 308.415 80.04C308.415 82.8 309.75 84.12 311.565 84.12ZM312.165 82.605C310.98 82.605 310.26 81.765 310.26 80.085C310.26 78.315 310.83 77.415 312.225 77.415C312.885 77.415 313.605 77.76 314.1 78.405V81.6C313.665 82.125 312.93 82.605 312.165 82.605Z" fill="#09051C"/>
<path opacity="0.3" d="M107.616 105H114.462V103.908H109.002C109.114 103.026 109.996 102.004 111.802 100.856C113.79 99.596 114.406 98.672 114.406 97.314C114.406 95.62 113.23 94.444 111.312 94.444C109.702 94.444 108.526 95.284 107.77 96.656L108.722 97.244C109.338 96.124 110.192 95.536 111.256 95.536C112.488 95.536 113.202 96.264 113.202 97.398C113.202 98.504 112.572 99.134 111.018 100.128C108.288 101.878 107.616 103.278 107.616 104.776V105ZM116.401 105H123.247V103.908H117.787C117.899 103.026 118.781 102.004 120.587 100.856C122.575 99.596 123.191 98.672 123.191 97.314C123.191 95.62 122.015 94.444 120.097 94.444C118.487 94.444 117.311 95.284 116.555 96.656L117.507 97.244C118.123 96.124 118.977 95.536 120.041 95.536C121.273 95.536 121.987 96.264 121.987 97.398C121.987 98.504 121.357 99.134 119.803 100.128C117.073 101.878 116.401 103.278 116.401 104.776V105ZM130.896 105.196C132.73 105.196 133.836 104.146 133.836 102.2V94.64H132.604V102.116C132.604 103.614 131.904 104.118 130.854 104.118C130.042 104.118 129.51 103.712 129.09 103.138L128.264 103.838C128.852 104.65 129.636 105.196 130.896 105.196ZM138.674 105.14C139.878 105.14 140.802 104.524 141.446 103.894V105H142.664V97.608H141.446V102.942C140.676 103.67 139.948 104.132 139.052 104.132C138.114 104.132 137.694 103.67 137.694 102.69V97.608H136.49V102.942C136.49 104.342 137.26 105.14 138.674 105.14ZM145.291 105H146.509V99.68C147.279 98.952 148.021 98.49 148.903 98.49C149.841 98.49 150.261 98.952 150.261 99.932V105H151.465V99.666C151.465 98.266 150.695 97.454 149.281 97.454C148.077 97.454 147.153 98.084 146.509 98.714V97.608H145.291V105ZM154.304 107.842C155.746 107.842 156.32 107.142 156.824 105.84L159.988 97.608H158.77L156.6 103.586H156.572L154.402 97.608H153.128L155.984 105.042L155.704 105.77C155.41 106.498 155.046 106.82 154.29 106.82C153.772 106.82 153.408 106.75 153.198 106.694L152.918 107.66C153.24 107.758 153.646 107.842 154.304 107.842ZM165.182 105H172.028V103.908H166.568C166.68 103.026 167.562 102.004 169.368 100.856C171.356 99.596 171.972 98.672 171.972 97.314C171.972 95.62 170.796 94.444 168.878 94.444C167.268 94.444 166.092 95.284 165.336 96.656L166.288 97.244C166.904 96.124 167.758 95.536 168.822 95.536C170.054 95.536 170.768 96.264 170.768 97.398C170.768 98.504 170.138 99.134 168.584 100.128C165.854 101.878 165.182 103.278 165.182 104.776V105ZM177.849 105.196C180.341 105.196 181.727 103.054 181.727 99.82C181.727 96.586 180.341 94.444 177.849 94.444C175.371 94.444 173.943 96.586 173.943 99.82C173.943 103.054 175.371 105.196 177.849 105.196ZM177.849 104.118C176.211 104.118 175.175 102.634 175.175 99.82C175.175 97.006 176.155 95.536 177.849 95.536C179.473 95.536 180.509 97.006 180.509 99.82C180.509 102.634 179.515 104.118 177.849 104.118ZM183.45 105H190.296V103.908H184.836C184.948 103.026 185.83 102.004 187.636 100.856C189.624 99.596 190.24 98.672 190.24 97.314C190.24 95.62 189.064 94.444 187.146 94.444C185.536 94.444 184.36 95.284 183.604 96.656L184.556 97.244C185.172 96.124 186.026 95.536 187.09 95.536C188.322 95.536 189.036 96.264 189.036 97.398C189.036 98.504 188.406 99.134 186.852 100.128C184.122 101.878 183.45 103.278 183.45 104.776V105ZM192.375 105H197.261V103.908H195.525V94.64H194.377C193.915 95.074 193.201 95.284 192.403 95.312V96.404C193.005 96.404 193.817 96.194 194.321 95.928V103.908H192.375V105Z" fill="#3B3B3B"/>
<circle cx="84" cy="66" r="2" fill="#E21B1B"/>
<circle cx="33" cy="62" r="1" fill="#E21B1B"/>
<circle cx="83" cy="118" r="1" fill="#E21B1B"/>
<circle cx="33.5" cy="113.5" r="4.5" fill="#E21B1B"/>
<g clip-path="url(#clip0_184_2435)">
<path d="M57 111C68.0457 111 77 102.046 77 91C77 79.9543 68.0457 71 57 71C45.9543 71 37 79.9543 37 91C37 102.046 45.9543 111 57 111Z" fill="#E21B1B"/>
<path d="M76.8655 93.2894L65.743 82.1669L48.738 99.7975L59.748 110.808C68.7462 109.57 75.8324 102.351 76.8655 93.2894Z" fill="#C40606"/>
<path d="M64.6859 100.026C64.2859 100.026 63.8866 99.8738 63.5809 99.5688L48.4384 84.4257C47.8278 83.815 47.8278 82.8263 48.4384 82.2163C49.0491 81.6063 50.0378 81.6057 50.6478 82.2163L65.7909 97.3594C66.4016 97.97 66.4016 98.9588 65.7909 99.5688C65.4853 99.8738 65.0859 100.026 64.6859 100.026Z" fill="white"/>
<path d="M49.5425 100.026C49.1425 100.026 48.7431 99.8738 48.4375 99.5688C47.8268 98.9581 47.8268 97.9694 48.4375 97.3594L63.5806 82.2163C64.1912 81.6056 65.18 81.6056 65.79 82.2163C66.4 82.8269 66.4006 83.8156 65.79 84.4256L50.6475 99.5688C50.3425 99.8738 49.9425 100.026 49.5425 100.026Z" fill="white"/>
</g>
<defs>
<filter id="filter0_d_184_2435" x="-36" y="0" width="447" height="181" filterUnits="userSpaceOnUse" color-interpolation-filters="sRGB">
<feFlood flood-opacity="0" result="BackgroundImageFix"/>
<feColorMatrix in="SourceAlpha" type="matrix" values="0 0 0 0 0 0 0 0 0 0 0 0 0 0 0 0 0 0 127 0" result="hardAlpha"/>
<feOffset/>
<feGaussianBlur stdDeviation="25"/>
<feColorMatrix type="matrix" values="0 0 0 0 0.352941 0 0 0 0 0.423529 0 0 0 0 0.917647 0 0 0 0.07 0"/>
<feBlend mode="normal" in2="BackgroundImageFix" result="effect1_dropShadow_184_2435"/>
<feBlend mode="normal" in="SourceGraphic" in2="effect1_dropShadow_184_2435" result="shape"/>
</filter>
<clipPath id="clip0_184_2435">
<rect width="40" height="40" fill="white" transform="translate(37 71)"/>
</clipPath>
</defs>
</svg>
