<svg width="375" height="203" viewBox="0 0 375 203" fill="none" xmlns="http://www.w3.org/2000/svg">
<g filter="url(#filter0_d_184_6)">
<rect x="14" y="24" width="347" height="103" rx="22" fill="white"/>
</g>
<path d="M50.523 86H63.03V82.37H59.037V61.58H55.143C54.054 62.603 52.47 63.098 50.589 63.164V66.893C52.008 66.893 53.823 66.398 55.011 65.771V82.37H50.523V86Z" fill="#09051C"/>
<path d="M141.42 86.462C147.162 86.462 151.98 81.974 151.98 73.361C151.98 65.21 148.152 61.118 142.542 61.118C137.691 61.118 133.698 64.517 133.698 69.434C133.698 74.45 136.833 77.123 141.486 77.123C144.159 77.123 146.271 75.968 147.921 74.483C147.723 79.631 145.281 82.931 141.585 82.931C139.671 82.931 138.219 82.238 137.097 81.446L135.117 84.482C136.437 85.505 138.681 86.462 141.42 86.462ZM142.245 73.691C138.813 73.691 137.625 71.843 137.625 69.302C137.625 66.398 139.374 64.682 142.344 64.682C145.413 64.682 147.558 66.563 147.888 71.282C146.832 72.536 144.555 73.691 142.245 73.691Z" fill="#09051C"/>
<path d="M220.213 86H237.241V82.37H225.031C225.46 80.621 227.44 78.707 231.334 76.232C236.02 73.262 237.109 71.018 237.109 68.048C237.109 63.89 234.238 61.118 229.453 61.118C225.262 61.118 222.424 63.263 220.444 66.299L223.513 68.411C225.031 66.134 227.11 64.814 229.255 64.814C231.565 64.814 233.083 66.068 233.083 68.345C233.083 70.853 231.598 72.008 227.869 74.417C221.434 78.542 220.213 81.941 220.213 85.472V86Z" fill="#09051C"/>
<path d="M314.598 86.462C320.043 86.462 323.574 83.624 323.574 79.235C323.574 75.968 321.99 73.757 318.393 73.031C321.231 72.272 322.881 70.259 322.881 67.322C322.881 63.692 320.274 61.151 315.027 61.151C311.661 61.151 308.592 62.504 306.579 64.616L308.988 67.19C310.44 65.705 312.552 64.847 314.631 64.847C317.667 64.847 318.822 65.969 318.822 67.916C318.822 70.061 317.568 71.48 312.783 71.48H311.562V74.846H312.684C317.271 74.846 319.482 76.001 319.482 79.07C319.482 81.677 317.535 82.832 314.532 82.832C312.189 82.832 310.077 82.073 308.394 79.862L305.523 82.172C307.602 84.977 310.737 86.462 314.598 86.462Z" fill="#09051C"/>
<defs>
<filter id="filter0_d_184_6" x="-24" y="0" width="447" height="203" filterUnits="userSpaceOnUse" color-interpolation-filters="sRGB">
<feFlood flood-opacity="0" result="BackgroundImageFix"/>
<feColorMatrix in="SourceAlpha" type="matrix" values="0 0 0 0 0 0 0 0 0 0 0 0 0 0 0 0 0 0 127 0" result="hardAlpha"/>
<feOffset dx="12" dy="26"/>
<feGaussianBlur stdDeviation="25"/>
<feColorMatrix type="matrix" values="0 0 0 0 0.352941 0 0 0 0 0.423529 0 0 0 0 0.917647 0 0 0 0.07 0"/>
<feBlend mode="normal" in2="BackgroundImageFix" result="effect1_dropShadow_184_6"/>
<feBlend mode="normal" in="SourceGraphic" in2="effect1_dropShadow_184_6" result="shape"/>
</filter>
</defs>
</svg>
