<svg width="204" height="52" viewBox="0 0 204 52" fill="none" xmlns="http://www.w3.org/2000/svg">
<circle cx="60" cy="40" r="4" fill="#09051C"/>
<circle cx="72" cy="40" r="4" fill="#09051C"/>
<circle cx="84" cy="40" r="4" fill="#09051C"/>
<circle cx="96" cy="40" r="4" fill="#09051C"/>
<path d="M121.256 47.68C121.779 47.68 122.293 47.616 122.8 47.488C123.312 47.36 123.803 47.1653 124.272 46.904L123.896 46.008C123.539 46.216 123.131 46.3787 122.672 46.496C122.219 46.6133 121.765 46.672 121.312 46.672C120.384 46.672 119.547 46.4587 118.8 46.032C118.059 45.6107 117.469 45.032 117.032 44.296C116.595 43.5547 116.371 42.7093 116.36 41.76C116.349 40.8427 116.539 40 116.928 39.232C117.317 38.464 117.885 37.848 118.632 37.384C119.379 36.92 120.285 36.688 121.352 36.688C122.232 36.688 123.04 36.8693 123.776 37.232C124.512 37.5947 125.093 38.1387 125.52 38.864C125.947 39.584 126.139 40.4827 126.096 41.56C126.069 42.152 125.941 42.624 125.712 42.976C125.488 43.328 125.163 43.504 124.736 43.504C124.309 43.504 124.003 43.3813 123.816 43.136C123.635 42.8907 123.544 42.568 123.544 42.168L123.552 39.568H122.704V39.904C122.485 39.712 122.229 39.5707 121.936 39.48C121.643 39.3893 121.36 39.344 121.088 39.344C120.379 39.344 119.789 39.5707 119.32 40.024C118.856 40.472 118.624 41.0773 118.624 41.84C118.624 42.576 118.848 43.176 119.296 43.64C119.749 44.0987 120.339 44.328 121.064 44.328C121.395 44.328 121.717 44.2693 122.032 44.152C122.352 44.0347 122.619 43.848 122.832 43.592C123.008 43.8907 123.256 44.12 123.576 44.28C123.901 44.44 124.269 44.52 124.68 44.52C125.437 44.52 126.027 44.2667 126.448 43.76C126.875 43.248 127.115 42.4853 127.168 41.472C127.211 40.736 127.117 40.024 126.888 39.336C126.659 38.648 126.299 38.0293 125.808 37.48C125.317 36.9253 124.693 36.488 123.936 36.168C123.184 35.8427 122.304 35.68 121.296 35.68C120.123 35.68 119.083 35.9387 118.176 36.456C117.269 36.968 116.56 37.68 116.048 38.592C115.536 39.504 115.28 40.5627 115.28 41.768C115.28 42.616 115.429 43.4 115.728 44.12C116.032 44.84 116.453 45.4667 116.992 46C117.531 46.528 118.163 46.9387 118.888 47.232C119.613 47.5307 120.403 47.68 121.256 47.68ZM121.128 43.304C120.68 43.304 120.325 43.1787 120.064 42.928C119.803 42.6773 119.672 42.312 119.672 41.832C119.672 41.3627 119.797 40.9973 120.048 40.736C120.299 40.4747 120.667 40.344 121.152 40.344C121.573 40.344 121.909 40.4693 122.16 40.72C122.416 40.9707 122.544 41.3413 122.544 41.832C122.544 42.3333 122.411 42.704 122.144 42.944C121.883 43.184 121.544 43.304 121.128 43.304ZM132.925 46.24C133.506 46.24 134.024 46.128 134.477 45.904C134.93 45.68 135.312 45.3707 135.621 44.976V45.864C135.626 46.8773 135.426 47.6427 135.021 48.16C134.616 48.6773 133.944 48.936 133.005 48.936C132.552 48.936 132.106 48.8293 131.669 48.616C131.232 48.408 130.896 48.064 130.661 47.584L129.597 48.176C129.965 48.848 130.458 49.3333 131.077 49.632C131.701 49.9307 132.344 50.08 133.005 50.08C134.061 50.08 134.904 49.8507 135.533 49.392C136.162 48.9333 136.554 48.2213 136.709 47.256C136.746 47.0373 136.77 46.8133 136.781 46.584C136.797 46.36 136.805 46.1253 136.805 45.88V37.36H135.757V38.552C135.442 38.104 135.042 37.7547 134.557 37.504C134.077 37.248 133.517 37.12 132.877 37.12C132.088 37.12 131.41 37.32 130.845 37.72C130.28 38.12 129.845 38.664 129.541 39.352C129.242 40.04 129.093 40.8133 129.093 41.672C129.093 42.536 129.242 43.312 129.541 44C129.845 44.688 130.282 45.2347 130.853 45.64C131.429 46.04 132.12 46.24 132.925 46.24ZM133.045 45.144C132.448 45.144 131.946 44.992 131.541 44.688C131.141 44.3787 130.84 43.9627 130.637 43.44C130.44 42.9173 130.341 42.328 130.341 41.672C130.341 41.0213 130.44 40.4347 130.637 39.912C130.834 39.3893 131.133 38.976 131.533 38.672C131.938 38.368 132.45 38.216 133.069 38.216C133.97 38.216 134.642 38.5387 135.085 39.184C135.533 39.824 135.757 40.6533 135.757 41.672C135.757 42.3387 135.658 42.9333 135.461 43.456C135.264 43.9787 134.965 44.392 134.565 44.696C134.165 44.9947 133.658 45.144 133.045 45.144ZM139.034 46H140.218V40.424C140.218 39.7467 140.402 39.2053 140.77 38.8C141.138 38.3893 141.621 38.184 142.218 38.184C142.815 38.184 143.295 38.384 143.658 38.784C144.026 39.1787 144.21 39.72 144.21 40.408L144.202 46H145.362L145.37 40.424C145.37 39.8853 145.469 39.4533 145.666 39.128C145.869 38.7973 146.125 38.5573 146.434 38.408C146.743 38.2587 147.061 38.184 147.386 38.184C147.957 38.184 148.426 38.376 148.794 38.76C149.167 39.1387 149.354 39.6613 149.354 40.328L149.346 46H150.522L150.53 40.104C150.53 39.192 150.269 38.4693 149.746 37.936C149.229 37.3973 148.533 37.128 147.658 37.128C147.082 37.128 146.565 37.2587 146.106 37.52C145.647 37.776 145.293 38.1307 145.042 38.584C144.807 38.1093 144.469 37.7493 144.026 37.504C143.589 37.2533 143.087 37.128 142.522 37.128C142.01 37.128 141.543 37.232 141.122 37.44C140.701 37.6427 140.357 37.92 140.09 38.272V37.36H139.034V46ZM155.076 46.24C156.586 46.24 157.682 45.6827 158.364 44.568V46H159.412V40.632C159.412 40.312 159.396 39.9973 159.364 39.688C159.332 39.3787 159.263 39.0987 159.156 38.848C158.927 38.288 158.535 37.8613 157.98 37.568C157.431 37.2693 156.762 37.12 155.972 37.12C155.023 37.12 154.25 37.3333 153.652 37.76C153.055 38.1867 152.655 38.7867 152.452 39.56L153.596 39.896C153.762 39.32 154.047 38.8987 154.452 38.632C154.863 38.3653 155.364 38.232 155.956 38.232C156.778 38.232 157.364 38.424 157.716 38.808C158.068 39.1867 158.25 39.7653 158.26 40.544C157.876 40.5973 157.452 40.6533 156.988 40.712C156.53 40.7707 156.068 40.8373 155.604 40.912C155.14 40.9867 154.714 41.072 154.324 41.168C153.679 41.3387 153.151 41.624 152.74 42.024C152.33 42.4187 152.124 42.9707 152.124 43.68C152.124 44.1387 152.234 44.5627 152.452 44.952C152.671 45.3413 152.999 45.6533 153.436 45.888C153.879 46.1227 154.426 46.24 155.076 46.24ZM155.212 45.224C154.748 45.224 154.375 45.1493 154.092 45C153.815 44.8453 153.612 44.6507 153.484 44.416C153.362 44.176 153.3 43.9307 153.3 43.68C153.3 43.2107 153.458 42.8587 153.772 42.624C154.087 42.3893 154.428 42.2187 154.796 42.112C155.271 41.984 155.823 41.88 156.452 41.8C157.082 41.72 157.679 41.6453 158.244 41.576C158.244 41.7733 158.236 42 158.22 42.256C158.21 42.5067 158.18 42.7387 158.132 42.952C158.02 43.6027 157.711 44.144 157.204 44.576C156.703 45.008 156.039 45.224 155.212 45.224ZM161.655 35.72H162.831V34.4H161.655V35.72ZM161.655 46H162.831V37.36H161.655V46ZM165.389 46H166.565V34.24H165.389V46ZM169.188 46H170.556V44.632H169.188V46ZM176.61 46.24C177.469 46.24 178.205 46.04 178.818 45.64C179.437 45.2347 179.909 44.648 180.234 43.88L179.05 43.528C178.613 44.584 177.8 45.112 176.61 45.112C175.682 45.112 174.984 44.8 174.514 44.176C174.045 43.5467 173.805 42.7147 173.794 41.68C173.805 40.672 174.037 39.848 174.49 39.208C174.949 38.568 175.656 38.248 176.61 38.248C177.176 38.248 177.677 38.392 178.114 38.68C178.557 38.9627 178.88 39.3627 179.082 39.88L180.234 39.512C179.994 38.7707 179.549 38.1867 178.898 37.76C178.253 37.3333 177.493 37.12 176.618 37.12C175.76 37.12 175.029 37.312 174.426 37.696C173.824 38.0747 173.362 38.608 173.042 39.296C172.722 39.9787 172.557 40.7733 172.546 41.68C172.557 42.5653 172.717 43.352 173.026 44.04C173.341 44.728 173.8 45.2667 174.402 45.656C175.005 46.0453 175.741 46.24 176.61 46.24ZM185.259 46.24C186.113 46.24 186.843 46.048 187.451 45.664C188.065 45.28 188.534 44.7467 188.859 44.064C189.19 43.376 189.355 42.5787 189.355 41.672C189.355 40.7813 189.193 39.9947 188.867 39.312C188.547 38.624 188.081 38.088 187.467 37.704C186.859 37.3147 186.123 37.12 185.259 37.12C184.417 37.12 183.689 37.312 183.075 37.696C182.467 38.0747 181.998 38.6053 181.667 39.288C181.337 39.9707 181.171 40.7653 181.171 41.672C181.171 42.5627 181.331 43.352 181.651 44.04C181.977 44.728 182.443 45.2667 183.051 45.656C183.665 46.0453 184.401 46.24 185.259 46.24ZM185.259 45.112C184.326 45.112 183.619 44.8 183.139 44.176C182.659 43.5467 182.419 42.712 182.419 41.672C182.419 40.664 182.651 39.8427 183.115 39.208C183.579 38.568 184.294 38.248 185.259 38.248C186.214 38.248 186.926 38.56 187.395 39.184C187.87 39.8027 188.107 40.632 188.107 41.672C188.107 42.6907 187.873 43.52 187.403 44.16C186.934 44.7947 186.219 45.112 185.259 45.112ZM191.112 46H192.296V40.424C192.296 39.7467 192.48 39.2053 192.848 38.8C193.216 38.3893 193.699 38.184 194.296 38.184C194.893 38.184 195.373 38.384 195.736 38.784C196.104 39.1787 196.288 39.72 196.288 40.408L196.28 46H197.44L197.448 40.424C197.448 39.8853 197.547 39.4533 197.744 39.128C197.947 38.7973 198.203 38.5573 198.512 38.408C198.821 38.2587 199.139 38.184 199.464 38.184C200.035 38.184 200.504 38.376 200.872 38.76C201.245 39.1387 201.432 39.6613 201.432 40.328L201.424 46H202.6L202.608 40.104C202.608 39.192 202.347 38.4693 201.824 37.936C201.307 37.3973 200.611 37.128 199.736 37.128C199.16 37.128 198.643 37.2587 198.184 37.52C197.725 37.776 197.371 38.1307 197.12 38.584C196.885 38.1093 196.547 37.7493 196.104 37.504C195.667 37.2533 195.165 37.128 194.6 37.128C194.088 37.128 193.621 37.232 193.2 37.44C192.779 37.6427 192.435 37.92 192.168 38.272V37.36H191.112V46Z" fill="#09051C"/>
<path d="M60.672 16.048H61.984L66.144 4.16H64.784L61.376 14.16H61.344L57.952 4.16H56.512L60.672 16.048ZM67.6238 5.744H69.0638V4.4H67.6238V5.744ZM67.6558 16H69.0318V7.552H67.6558V16ZM73.4318 16.128C74.6958 16.128 75.7518 15.712 76.6958 14.832C76.6958 15.312 76.7758 15.648 76.8878 16H78.2958C78.1198 15.568 78.0558 14.944 78.0558 13.92V10.192C78.0558 8.432 77.2558 7.376 75.2398 7.376C73.5598 7.376 72.2958 8.048 71.3198 8.944L72.0398 9.808C72.8718 9.088 73.8158 8.528 75.0958 8.528C76.1358 8.528 76.6958 9.04 76.6958 10.096V10.48C72.5038 11.072 71.0478 12.288 71.0478 14C71.0478 15.36 71.9758 16.128 73.4318 16.128ZM73.8318 15.04C72.9518 15.04 72.4078 14.608 72.4078 13.792C72.4078 12.736 73.4798 11.952 76.6958 11.44V13.808C75.9118 14.576 74.9518 15.04 73.8318 15.04ZM87.4975 16.176C89.0815 16.176 90.1535 15.504 90.9375 14.384L90.1375 13.68C89.4975 14.56 88.8095 15.056 87.5935 15.056C86.2015 15.056 85.0975 14.032 85.0495 12.128H91.0175V11.84C91.0175 8.784 89.4975 7.376 87.4975 7.376C85.7215 7.376 83.6735 8.704 83.6735 11.776C83.6735 14.72 85.4975 16.176 87.4975 16.176ZM85.0815 11.056C85.2735 9.312 86.3455 8.528 87.4815 8.528C88.8735 8.528 89.5935 9.552 89.7055 11.056H85.0815ZM92.9816 16H94.3576V9.92C95.2536 9.088 96.0536 8.56 96.9816 8.56C98.0856 8.56 98.4536 9.088 98.4536 10.208V16H99.8296V9.92C100.71 9.088 101.494 8.56 102.438 8.56C103.542 8.56 103.91 9.088 103.91 10.208V16H105.286V9.904C105.286 8.384 104.566 7.376 102.838 7.376C101.574 7.376 100.534 8.064 99.7176 8.864C99.4296 7.984 98.8216 7.376 97.3976 7.376C96.1336 7.376 95.1576 8.032 94.3576 8.832V7.552H92.9816V16ZM109.526 16.128C110.79 16.128 111.846 15.712 112.79 14.832C112.79 15.312 112.87 15.648 112.982 16H114.39C114.214 15.568 114.15 14.944 114.15 13.92V10.192C114.15 8.432 113.35 7.376 111.334 7.376C109.654 7.376 108.39 8.048 107.414 8.944L108.134 9.808C108.966 9.088 109.91 8.528 111.19 8.528C112.23 8.528 112.79 9.04 112.79 10.096V10.48C108.598 11.072 107.142 12.288 107.142 14C107.142 15.36 108.07 16.128 109.526 16.128ZM109.926 15.04C109.046 15.04 108.502 14.608 108.502 13.792C108.502 12.736 109.574 11.952 112.79 11.44V13.808C112.006 14.576 111.046 15.04 109.926 15.04ZM116.561 5.744H118.001V4.4H116.561V5.744ZM116.593 16H117.969V7.552H116.593V16ZM120.593 16H121.969V4.16H120.593V16ZM124.657 9.248H126.305V7.552H124.657V9.248ZM124.657 16H126.305V14.32H124.657V16Z" fill="#828282"/>
<path d="M33.3333 12.6667H6.66659C4.83325 12.6667 3.34992 14.1667 3.34992 16L3.33325 36C3.33325 37.8334 4.83325 39.3334 6.66659 39.3334H33.3333C35.1666 39.3334 36.6666 37.8334 36.6666 36V16C36.6666 14.1667 35.1666 12.6667 33.3333 12.6667ZM32.6666 19.75L20.8833 27.1167C20.3499 27.45 19.6499 27.45 19.1166 27.1167L7.33325 19.75C7.16613 19.6562 7.01978 19.5295 6.90307 19.3774C6.78635 19.2254 6.70169 19.0513 6.65421 18.8656C6.60673 18.68 6.59742 18.4866 6.62685 18.2972C6.65627 18.1078 6.72381 17.9264 6.82539 17.7639C6.92696 17.6013 7.06046 17.4611 7.2178 17.3517C7.37513 17.2422 7.55304 17.1659 7.74074 17.1272C7.92845 17.0885 8.12206 17.0883 8.30984 17.1266C8.49763 17.1649 8.67569 17.2409 8.83325 17.35L19.9999 24.3334L31.1666 17.35C31.3241 17.2409 31.5022 17.1649 31.69 17.1266C31.8778 17.0883 32.0714 17.0885 32.2591 17.1272C32.4468 17.1659 32.6247 17.2422 32.782 17.3517C32.9394 17.4611 33.0729 17.6013 33.1744 17.7639C33.276 17.9264 33.3436 18.1078 33.373 18.2972C33.4024 18.4866 33.3931 18.68 33.3456 18.8656C33.2982 19.0513 33.2135 19.2254 33.0968 19.3774C32.9801 19.5295 32.8337 19.6562 32.6666 19.75Z" fill="url(#paint0_linear_169_24216)"/>
<defs>
<linearGradient id="paint0_linear_169_24216" x1="3.33325" y1="11.0293" x2="41.3126" y2="18.3847" gradientUnits="userSpaceOnUse">
<stop stop-color="#53E88B"/>
<stop offset="1" stop-color="#15BE77"/>
</linearGradient>
</defs>
</svg>
