<svg width="209" height="52" viewBox="0 0 209 52" fill="none" xmlns="http://www.w3.org/2000/svg">
<circle cx="60" cy="40" r="4" fill="#09051C"/>
<circle cx="72" cy="40" r="4" fill="#09051C"/>
<circle cx="84" cy="40" r="4" fill="#09051C"/>
<circle cx="96" cy="40" r="4" fill="#09051C"/>
<circle cx="118" cy="40" r="4" fill="#09051C"/>
<circle cx="130" cy="40" r="4" fill="#09051C"/>
<circle cx="142" cy="40" r="4" fill="#09051C"/>
<circle cx="154" cy="40" r="4" fill="#09051C"/>
<path d="M178.192 46H179.376V43.768H180.632V42.648H179.376V39.288H178.192V42.648H174.12L177.976 34.48H176.656L172.8 42.648V43.768H178.192V46ZM182.238 45.992H189.758V44.864H184.03L188.126 41.168C188.686 40.6667 189.096 40.1813 189.358 39.712C189.624 39.2427 189.758 38.6453 189.758 37.92C189.758 37.232 189.595 36.6107 189.27 36.056C188.95 35.5013 188.51 35.0613 187.95 34.736C187.395 34.4053 186.768 34.24 186.07 34.24C185.36 34.24 184.72 34.4 184.15 34.72C183.584 35.0347 183.136 35.4693 182.806 36.024C182.475 36.5733 182.31 37.2 182.31 37.904H183.51C183.504 37.4507 183.611 37.032 183.83 36.648C184.054 36.264 184.358 35.9547 184.742 35.72C185.126 35.4853 185.563 35.368 186.054 35.368C186.528 35.368 186.955 35.4827 187.334 35.712C187.712 35.936 188.011 36.24 188.23 36.624C188.454 37.008 188.566 37.4373 188.566 37.912C188.566 38.312 188.491 38.696 188.342 39.064C188.192 39.432 187.896 39.816 187.454 40.216L182.246 44.92L182.238 45.992ZM194.779 46.232C195.488 46.232 196.117 46.0747 196.667 45.76C197.221 45.44 197.656 45 197.971 44.44C198.291 43.8747 198.451 43.224 198.451 42.488C198.451 41.768 198.304 41.1333 198.011 40.584C197.717 40.0347 197.307 39.608 196.779 39.304C196.251 38.9947 195.637 38.8427 194.939 38.848L198.315 35.624V34.48H191.659V35.608H196.819L192.859 39.264L193.451 40.2C193.648 40.104 193.861 40.0267 194.091 39.968C194.32 39.9093 194.539 39.88 194.747 39.88C195.493 39.88 196.093 40.12 196.547 40.6C197.005 41.0747 197.235 41.704 197.235 42.488C197.235 43.2613 197.013 43.8853 196.571 44.36C196.133 44.8347 195.531 45.08 194.763 45.096C194.213 45.1067 193.717 44.9653 193.275 44.672C192.832 44.3787 192.515 43.9467 192.323 43.376L191.203 43.712C191.448 44.4907 191.891 45.1067 192.531 45.56C193.176 46.008 193.925 46.232 194.779 46.232ZM203.926 46.24C204.641 46.24 205.294 46.0667 205.886 45.72C206.478 45.368 206.953 44.8987 207.31 44.312C207.668 43.7253 207.846 43.08 207.846 42.376C207.846 41.6667 207.678 41.024 207.342 40.448C207.006 39.872 206.553 39.416 205.982 39.08C205.412 38.7387 204.772 38.568 204.062 38.568C203.63 38.568 203.212 38.6453 202.806 38.8C202.401 38.9493 202.041 39.1627 201.726 39.44L201.958 35.608H207.038V34.48H200.886L200.534 40.472L201.606 40.92C201.841 40.5573 202.156 40.2587 202.55 40.024C202.945 39.7893 203.414 39.672 203.958 39.672C204.444 39.672 204.892 39.792 205.302 40.032C205.713 40.272 206.044 40.5973 206.294 41.008C206.545 41.4133 206.67 41.8693 206.67 42.376C206.67 42.8667 206.55 43.3173 206.31 43.728C206.07 44.1387 205.745 44.4693 205.334 44.72C204.929 44.9653 204.47 45.088 203.958 45.088C203.366 45.088 202.82 44.9067 202.318 44.544C201.817 44.1813 201.489 43.688 201.334 43.064L200.206 43.368C200.361 43.928 200.617 44.424 200.974 44.856C201.332 45.288 201.764 45.6267 202.27 45.872C202.777 46.1173 203.329 46.24 203.926 46.24Z" fill="#09051C"/>
<path d="M60.672 16.048H61.984L66.144 4.16H64.784L61.376 14.16H61.344L57.952 4.16H56.512L60.672 16.048ZM67.6238 5.744H69.0638V4.4H67.6238V5.744ZM67.6558 16H69.0318V7.552H67.6558V16ZM73.4318 16.128C74.6958 16.128 75.7518 15.712 76.6958 14.832C76.6958 15.312 76.7758 15.648 76.8878 16H78.2958C78.1198 15.568 78.0558 14.944 78.0558 13.92V10.192C78.0558 8.432 77.2558 7.376 75.2398 7.376C73.5598 7.376 72.2958 8.048 71.3198 8.944L72.0398 9.808C72.8718 9.088 73.8158 8.528 75.0958 8.528C76.1358 8.528 76.6958 9.04 76.6958 10.096V10.48C72.5038 11.072 71.0478 12.288 71.0478 14C71.0478 15.36 71.9758 16.128 73.4318 16.128ZM73.8318 15.04C72.9518 15.04 72.4078 14.608 72.4078 13.792C72.4078 12.736 73.4798 11.952 76.6958 11.44V13.808C75.9118 14.576 74.9518 15.04 73.8318 15.04ZM87.0015 16.16C88.9215 16.16 90.3775 15.296 90.3775 13.68C90.3775 11.936 89.0655 11.472 87.1615 11.008C85.8335 10.704 85.1615 10.416 85.1615 9.632C85.1615 9.04 85.6415 8.496 86.8735 8.496C87.8175 8.496 88.6815 8.912 89.3215 9.504L90.0415 8.592C89.2575 7.856 88.2975 7.376 86.8095 7.376C84.9695 7.376 83.8495 8.4 83.8495 9.68C83.8495 11.312 85.0815 11.792 86.8735 12.224C88.3135 12.56 89.0495 12.88 89.0495 13.728C89.0495 14.592 88.3295 15.056 87.0175 15.056C85.8655 15.056 85.0175 14.576 84.3775 13.888L83.5455 14.72C84.2335 15.552 85.4815 16.16 87.0015 16.16ZM92.341 16H93.717V9.92C94.613 9.088 95.413 8.56 96.341 8.56C97.445 8.56 97.813 9.088 97.813 10.208V16H99.189V9.92C100.069 9.088 100.853 8.56 101.797 8.56C102.901 8.56 103.269 9.088 103.269 10.208V16H104.645V9.904C104.645 8.384 103.925 7.376 102.197 7.376C100.933 7.376 99.893 8.064 99.077 8.864C98.789 7.984 98.181 7.376 96.757 7.376C95.493 7.376 94.517 8.032 93.717 8.832V7.552H92.341V16ZM109.861 16.16C111.781 16.16 113.237 15.296 113.237 13.68C113.237 11.936 111.925 11.472 110.021 11.008C108.693 10.704 108.021 10.416 108.021 9.632C108.021 9.04 108.501 8.496 109.733 8.496C110.677 8.496 111.541 8.912 112.181 9.504L112.901 8.592C112.117 7.856 111.157 7.376 109.669 7.376C107.829 7.376 106.709 8.4 106.709 9.68C106.709 11.312 107.941 11.792 109.733 12.224C111.173 12.56 111.909 12.88 111.909 13.728C111.909 14.592 111.189 15.056 109.877 15.056C108.725 15.056 107.877 14.576 107.237 13.888L106.405 14.72C107.093 15.552 108.341 16.16 109.861 16.16ZM115.36 9.248H117.008V7.552H115.36V9.248ZM115.36 16H117.008V14.32H115.36V16Z" fill="#828282"/>
<path d="M31.7833 14.2167C29.0486 11.4642 25.4393 9.75207 21.5777 9.37545C17.716 8.99883 13.8439 9.98134 10.6289 12.1536C7.41399 14.3259 5.05768 17.5517 3.96623 21.2751C2.87477 24.9984 3.11658 28.9859 4.64995 32.55C4.80977 32.8813 4.86221 33.2542 4.79995 33.6167L3.33329 40.6667C3.27678 40.937 3.28832 41.2171 3.36687 41.4818C3.44541 41.7466 3.58851 41.9876 3.78329 42.1834C3.94296 42.3419 4.13308 42.4664 4.34218 42.5495C4.55128 42.6326 4.77503 42.6724 4.99995 42.6667H5.33329L12.4666 41.2334C12.8292 41.1898 13.1968 41.2415 13.5333 41.3834C17.0975 42.9168 21.0849 43.1586 24.8083 42.0671C28.5316 40.9757 31.7575 38.6193 33.9297 35.4044C36.102 32.1895 37.0845 28.3174 36.7079 24.4557C36.3313 20.594 34.6191 16.9847 31.8666 14.25L31.7833 14.2167ZM13.3333 27.6667C13.0036 27.6667 12.6814 27.569 12.4073 27.3858C12.1333 27.2027 11.9196 26.9424 11.7935 26.6379C11.6673 26.3333 11.6343 25.9982 11.6986 25.6749C11.763 25.3516 11.9217 25.0546 12.1548 24.8215C12.3879 24.5884 12.6848 24.4297 13.0081 24.3654C13.3314 24.3011 13.6665 24.3341 13.9711 24.4602C14.2756 24.5864 14.5359 24.8 14.7191 25.0741C14.9022 25.3482 15 25.6704 15 26C15 26.4421 14.8244 26.866 14.5118 27.1786C14.1992 27.4911 13.7753 27.6667 13.3333 27.6667ZM20 27.6667C19.6703 27.6667 19.3481 27.569 19.074 27.3858C18.7999 27.2027 18.5863 26.9424 18.4602 26.6379C18.334 26.3333 18.301 25.9982 18.3653 25.6749C18.4296 25.3516 18.5884 25.0546 18.8214 24.8215C19.0545 24.5884 19.3515 24.4297 19.6748 24.3654C19.9981 24.3011 20.3332 24.3341 20.6378 24.4602C20.9423 24.5864 21.2026 24.8 21.3857 25.0741C21.5689 25.3482 21.6666 25.6704 21.6666 26C21.6666 26.4421 21.491 26.866 21.1785 27.1786C20.8659 27.4911 20.442 27.6667 20 27.6667ZM26.6666 27.6667C26.337 27.6667 26.0147 27.569 25.7407 27.3858C25.4666 27.2027 25.253 26.9424 25.1268 26.6379C25.0007 26.3333 24.9677 25.9982 25.032 25.6749C25.0963 25.3516 25.255 25.0546 25.4881 24.8215C25.7212 24.5884 26.0182 24.4297 26.3415 24.3654C26.6648 24.3011 26.9999 24.3341 27.3044 24.4602C27.609 24.5864 27.8693 24.8 28.0524 25.0741C28.2355 25.3482 28.3333 25.6704 28.3333 26C28.3333 26.4421 28.1577 26.866 27.8451 27.1786C27.5326 27.4911 27.1086 27.6667 26.6666 27.6667Z" fill="url(#paint0_linear_169_24199)"/>
<defs>
<linearGradient id="paint0_linear_169_24199" x1="3.29321" y1="7.24318" x2="41.9555" y2="13.2423" gradientUnits="userSpaceOnUse">
<stop stop-color="#53E88B"/>
<stop offset="1" stop-color="#15BE77"/>
</linearGradient>
</defs>
</svg>
