<svg width="375" height="208" viewBox="0 0 375 208" fill="none" xmlns="http://www.w3.org/2000/svg">
<g filter="url(#filter0_d_196_6)">
<rect x="20" y="24" width="335" height="108" rx="22" fill="white"/>
</g>
<path d="M85.76 85H87.575V82.72H89.45V81.1H87.575V73.9H85.415L80.36 81.25V82.72H85.76V85ZM82.385 81.1L85.73 76.135H85.76V81.1H82.385ZM94.0469 85.21C96.6269 85.21 98.2019 83.575 98.2019 81.265C98.2019 79.075 96.8819 77.59 94.6619 77.59C93.5069 77.59 92.7719 77.95 92.3369 78.415L92.5619 75.55H97.3619L97.4969 73.9H91.1069L90.6719 79.81L91.9169 80.215C92.5169 79.435 93.2519 79.15 94.1669 79.15C95.5019 79.15 96.3419 79.855 96.3419 81.325C96.3419 82.615 95.5919 83.56 93.9569 83.56C92.8019 83.56 91.9619 83.005 91.2119 82.3L90.0569 83.53C90.9569 84.535 92.3369 85.21 94.0469 85.21ZM99.3218 85H105.007V83.35H103.192V73.9H101.422C100.927 74.365 100.207 74.59 99.3518 74.62V76.315C99.9968 76.315 100.822 76.09 101.362 75.805V83.35H99.3218V85ZM106.547 85H108.467L112.907 75.43V73.9H105.512V75.55H110.972L106.547 85ZM119.953 85H121.603L123.703 76.495H123.733L125.728 85H127.363L130.288 73.9H128.533L127.153 79.735C126.943 80.68 126.778 81.265 126.613 82.225H126.583C126.418 81.295 126.238 80.635 125.998 79.69L124.618 73.9H122.818L121.483 79.66C121.258 80.545 121.063 81.37 120.913 82.225H120.883C120.733 81.355 120.522 80.53 120.298 79.645L118.888 73.9H116.998L119.953 85ZM132.755 85.12C133.94 85.12 134.885 84.805 135.695 83.98C135.695 84.43 135.77 84.67 135.875 85H137.735C137.57 84.595 137.51 84.01 137.51 83.05V79.765C137.51 77.905 136.775 76.885 134.645 76.885C132.995 76.885 131.66 77.545 130.805 78.325L131.705 79.48C132.38 78.94 133.28 78.4 134.39 78.4C135.275 78.4 135.695 78.745 135.695 79.54V79.78C131.975 80.2 130.505 81.355 130.505 83.08C130.505 84.4 131.465 85.12 132.755 85.12ZM133.43 83.695C132.755 83.695 132.32 83.365 132.32 82.735C132.32 81.865 133.49 81.325 135.695 81.025V82.78C135.11 83.335 134.375 83.695 133.43 83.695ZM142.407 85.165C144.222 85.165 145.737 84.385 145.737 82.705C145.737 80.845 144.072 80.5 142.707 80.2C141.762 79.99 140.967 79.795 140.967 79.15C140.967 78.7 141.297 78.34 142.317 78.34C143.037 78.34 143.982 78.73 144.567 79.21L145.452 78.01C144.627 77.32 143.697 76.885 142.182 76.885C140.427 76.885 139.227 77.83 139.227 79.225C139.227 81.07 140.862 81.43 142.227 81.745C143.187 81.97 143.997 82.165 143.997 82.81C143.997 83.47 143.397 83.725 142.407 83.725C141.387 83.725 140.502 83.29 139.902 82.78L138.897 83.905C139.617 84.64 140.937 85.165 142.407 85.165ZM147.348 85H149.208V79.495C149.883 78.88 150.558 78.46 151.368 78.46C152.178 78.46 152.553 78.865 152.553 79.75V85H154.413V79.285C154.413 77.71 153.513 76.885 152.118 76.885C150.678 76.885 149.718 77.575 149.208 78.115V73.9H147.348V85ZM156.447 75.655H158.337V74.05H156.447V75.655ZM156.462 85H158.322V77.035H156.462V85ZM160.473 85H162.333V79.495C163.008 78.88 163.683 78.46 164.493 78.46C165.303 78.46 165.678 78.865 165.678 79.75V85H167.538V79.285C167.538 77.71 166.638 76.885 165.243 76.885C163.803 76.885 162.843 77.575 162.333 78.115V77.035H160.473V85ZM172.512 88.09C174.972 88.09 176.622 87.295 176.622 85.66C176.622 84.265 175.692 83.635 173.337 83.485L171.927 83.395C171.222 83.335 171.012 83.23 171.012 82.915C171.012 82.705 171.177 82.54 171.417 82.405C171.807 82.51 172.077 82.57 172.527 82.57C174.597 82.57 175.842 81.4 175.842 79.735C175.842 79.315 175.737 78.94 175.557 78.655C176.082 78.49 176.592 78.445 176.952 78.445V76.945C176.292 77.005 175.482 77.32 174.972 77.725C174.432 77.245 173.622 76.885 172.527 76.885C170.442 76.885 169.182 78.1 169.182 79.735C169.182 80.71 169.632 81.52 170.442 82.03C169.842 82.39 169.362 82.885 169.362 83.485C169.362 83.92 169.572 84.25 169.977 84.46C169.167 84.775 168.672 85.345 168.672 86.14C168.672 87.295 169.767 88.09 172.512 88.09ZM172.557 81.295C171.537 81.295 170.922 80.77 170.922 79.795C170.922 78.82 171.522 78.265 172.542 78.265C173.592 78.265 174.162 78.805 174.162 79.795C174.162 80.77 173.562 81.295 172.557 81.295ZM172.797 86.755C171.177 86.755 170.367 86.53 170.367 85.825C170.367 85.42 170.577 85.045 171.102 84.805C171.267 84.835 171.417 84.85 171.582 84.85L172.962 84.94C174.582 85.045 174.987 85.255 174.987 85.825C174.987 86.395 174.147 86.755 172.797 86.755ZM181.405 85.105C181.87 85.105 182.56 85.045 182.755 85V83.545C182.575 83.605 182.23 83.65 181.96 83.65C181.045 83.65 180.79 83.305 180.79 82.45V78.505H182.845V77.035H180.79V74.26H178.945V77.035H177.565V78.505H178.945V82.915C178.945 84.355 179.38 85.105 181.405 85.105ZM187.727 85.165C189.662 85.165 191.612 83.935 191.612 81.025C191.612 78.085 189.662 76.885 187.727 76.885C185.777 76.885 183.842 78.085 183.842 81.025C183.842 83.935 185.792 85.165 187.727 85.165ZM187.727 83.62C186.317 83.62 185.702 82.54 185.702 81.025C185.702 79.42 186.392 78.46 187.727 78.46C189.122 78.46 189.752 79.54 189.752 81.025C189.752 82.66 189.062 83.62 187.727 83.62ZM193.227 85H195.087V79.495C195.762 78.88 196.437 78.46 197.247 78.46C198.057 78.46 198.432 78.865 198.432 79.75V85H200.292V79.285C200.292 77.71 199.392 76.885 197.997 76.885C196.557 76.885 195.597 77.575 195.087 78.115V77.035H193.227V85ZM204.916 85H206.671L207.586 82.36H211.801L212.701 85H214.621L210.691 73.855H208.846L204.916 85ZM208.156 80.71L209.701 76.21H209.731L211.246 80.71H208.156ZM217.414 85.015H219.289L222.169 77.035H220.384L218.449 82.915H218.419L216.469 77.035H214.534L217.414 85.015ZM226.354 85.165C227.779 85.165 228.874 84.64 229.699 83.725L228.724 82.765C228.124 83.35 227.524 83.695 226.489 83.695C225.319 83.695 224.434 83.065 224.359 81.625H229.804V81.19C229.804 77.95 228.094 76.885 226.309 76.885C224.659 76.885 222.514 77.995 222.514 81.025C222.514 83.95 224.359 85.165 226.354 85.165ZM224.389 80.245C224.569 78.895 225.394 78.385 226.294 78.385C227.404 78.385 228.004 79.03 228.109 80.245H224.389ZM231.138 85H233.208V83.05H231.138V85ZM238.819 85H240.514V76.645H240.544C240.784 77.71 240.949 78.19 241.219 78.985L243.364 85H245.029L247.189 78.985C247.444 78.205 247.684 77.485 247.849 76.72H247.879V85H249.694V73.9H247.174L244.294 82.705H244.264L241.294 73.9H238.819V85ZM253.722 85.12C254.907 85.12 255.852 84.805 256.662 83.98C256.662 84.43 256.737 84.67 256.842 85H258.702C258.537 84.595 258.477 84.01 258.477 83.05V79.765C258.477 77.905 257.742 76.885 255.612 76.885C253.962 76.885 252.627 77.545 251.772 78.325L252.672 79.48C253.347 78.94 254.247 78.4 255.357 78.4C256.242 78.4 256.662 78.745 256.662 79.54V79.78C252.942 80.2 251.472 81.355 251.472 83.08C251.472 84.4 252.432 85.12 253.722 85.12ZM254.397 83.695C253.722 83.695 253.287 83.365 253.287 82.735C253.287 81.865 254.457 81.325 256.662 81.025V82.78C256.077 83.335 255.342 83.695 254.397 83.695ZM260.464 85H262.324V79.495C262.999 78.88 263.674 78.46 264.484 78.46C265.294 78.46 265.669 78.865 265.669 79.75V85H267.529V79.285C267.529 77.71 266.629 76.885 265.234 76.885C263.794 76.885 262.834 77.575 262.324 78.115V77.035H260.464V85ZM272.772 85.165C274.692 85.165 275.637 84.1 276.207 82.825L274.677 82.27C274.242 83.395 273.657 83.65 272.817 83.65C271.602 83.65 270.912 82.72 270.912 81.025C270.912 79.12 271.797 78.43 272.847 78.43C273.732 78.43 274.302 78.865 274.617 79.765L276.177 79.21C275.697 77.98 274.857 76.885 272.877 76.885C271.107 76.885 269.052 77.98 269.052 81.025C269.052 83.935 270.927 85.165 272.772 85.165ZM277.676 85H279.536V79.495C280.211 78.88 280.886 78.46 281.696 78.46C282.506 78.46 282.881 78.865 282.881 79.75V85H284.741V79.285C284.741 77.71 283.841 76.885 282.446 76.885C281.006 76.885 280.046 77.575 279.536 78.115V73.9H277.676V85ZM290.104 85.165C291.529 85.165 292.624 84.64 293.449 83.725L292.474 82.765C291.874 83.35 291.274 83.695 290.239 83.695C289.069 83.695 288.184 83.065 288.109 81.625H293.554V81.19C293.554 77.95 291.844 76.885 290.059 76.885C288.409 76.885 286.264 77.995 286.264 81.025C286.264 83.95 288.109 85.165 290.104 85.165ZM288.139 80.245C288.319 78.895 289.144 78.385 290.044 78.385C291.154 78.385 291.754 79.03 291.859 80.245H288.139ZM297.944 85.165C299.759 85.165 301.274 84.385 301.274 82.705C301.274 80.845 299.609 80.5 298.244 80.2C297.299 79.99 296.504 79.795 296.504 79.15C296.504 78.7 296.834 78.34 297.854 78.34C298.574 78.34 299.519 78.73 300.104 79.21L300.989 78.01C300.164 77.32 299.234 76.885 297.719 76.885C295.964 76.885 294.764 77.83 294.764 79.225C294.764 81.07 296.399 81.43 297.764 81.745C298.724 81.97 299.534 82.165 299.534 82.81C299.534 83.47 298.934 83.725 297.944 83.725C296.924 83.725 296.039 83.29 295.439 82.78L294.434 83.905C295.154 84.64 296.474 85.165 297.944 85.165ZM305.829 85.105C306.294 85.105 306.984 85.045 307.179 85V83.545C306.999 83.605 306.654 83.65 306.384 83.65C305.469 83.65 305.214 83.305 305.214 82.45V78.505H307.269V77.035H305.214V74.26H303.369V77.035H301.989V78.505H303.369V82.915C303.369 84.355 303.804 85.105 305.829 85.105ZM312.106 85.165C313.531 85.165 314.626 84.64 315.451 83.725L314.476 82.765C313.876 83.35 313.276 83.695 312.241 83.695C311.071 83.695 310.186 83.065 310.111 81.625H315.556V81.19C315.556 77.95 313.846 76.885 312.061 76.885C310.411 76.885 308.266 77.995 308.266 81.025C308.266 83.95 310.111 85.165 312.106 85.165ZM310.141 80.245C310.321 78.895 311.146 78.385 312.046 78.385C313.156 78.385 313.756 79.03 313.861 80.245H310.141ZM317.182 85H319.027V79.96C319.552 79.105 320.302 78.55 321.487 78.55C321.592 78.55 321.892 78.565 321.982 78.58L322.042 76.885H321.922C320.407 76.885 319.552 77.545 319.057 78.34H319.027V77.035H317.182V85ZM322.433 86.68H323.288L324.233 84.745V83.05H322.163V85H322.958L322.433 86.68ZM81.26 105H83.135V101.355L84.71 99.615L88.04 105H90.185L85.94 98.175L89.72 93.9H87.5L83.135 99.06V93.9H81.26V105ZM94.4445 105.165C95.8695 105.165 96.9645 104.64 97.7895 103.725L96.8145 102.765C96.2145 103.35 95.6145 103.695 94.5795 103.695C93.4095 103.695 92.5245 103.065 92.4495 101.625H97.8945V101.19C97.8945 97.95 96.1845 96.885 94.3995 96.885C92.7495 96.885 90.6045 97.995 90.6045 101.025C90.6045 103.95 92.4495 105.165 94.4445 105.165ZM92.4795 100.245C92.6595 98.895 93.4845 98.385 94.3845 98.385C95.4945 98.385 96.0945 99.03 96.1995 100.245H92.4795ZM99.5213 105H101.381V99.495C102.056 98.88 102.731 98.46 103.541 98.46C104.351 98.46 104.726 98.865 104.726 99.75V105H106.586V99.285C106.586 97.71 105.686 96.885 104.291 96.885C102.851 96.885 101.891 97.575 101.381 98.115V97.035H99.5213V105ZM111.649 105.105C112.114 105.105 112.804 105.045 112.999 105V103.545C112.819 103.605 112.474 103.65 112.204 103.65C111.289 103.65 111.034 103.305 111.034 102.45V98.505H113.089V97.035H111.034V94.26H109.189V97.035H107.809V98.505H109.189V102.915C109.189 104.355 109.624 105.105 111.649 105.105ZM116.814 105.15C118.254 105.15 119.214 104.46 119.724 103.92V105H121.584V97.035H119.724V102.57C119.049 103.185 118.374 103.605 117.564 103.605C116.754 103.605 116.379 103.2 116.379 102.315V97.035H114.519V102.75C114.519 104.325 115.419 105.15 116.814 105.15ZM126.917 105.165C128.837 105.165 129.782 104.1 130.352 102.825L128.822 102.27C128.387 103.395 127.802 103.65 126.962 103.65C125.747 103.65 125.057 102.72 125.057 101.025C125.057 99.12 125.942 98.43 126.992 98.43C127.877 98.43 128.447 98.865 128.762 99.765L130.322 99.21C129.842 97.98 129.002 96.885 127.022 96.885C125.252 96.885 123.197 97.98 123.197 101.025C123.197 103.935 125.072 105.165 126.917 105.165ZM131.821 105H133.666V102.705L134.941 101.31L136.996 105H138.931L136.111 99.945L138.706 97.035H136.681L133.666 100.515V93.9H131.821V105ZM140.967 108.09C142.542 108.09 143.232 107.265 143.757 105.87L147.147 97.035H145.317L143.277 102.84H143.247L141.192 97.035H139.272L142.332 105.045L142.107 105.63C141.852 106.275 141.507 106.53 140.847 106.53C140.202 106.53 139.722 106.425 139.497 106.365L139.077 107.85C139.467 107.955 140.022 108.09 140.967 108.09ZM155.455 105.21C157.93 105.21 159.535 103.92 159.535 101.925C159.535 100.44 158.815 99.435 157.18 99.105C158.47 98.76 159.22 97.845 159.22 96.51C159.22 94.86 158.035 93.705 155.65 93.705C154.12 93.705 152.725 94.32 151.81 95.28L152.905 96.45C153.565 95.775 154.525 95.385 155.47 95.385C156.85 95.385 157.375 95.895 157.375 96.78C157.375 97.755 156.805 98.4 154.63 98.4H154.075V99.93H154.585C156.67 99.93 157.675 100.455 157.675 101.85C157.675 103.035 156.79 103.56 155.425 103.56C154.36 103.56 153.4 103.215 152.635 102.21L151.33 103.26C152.275 104.535 153.7 105.21 155.455 105.21ZM164.265 105.21C166.875 105.21 169.065 103.17 169.065 99.255C169.065 95.55 167.325 93.69 164.775 93.69C162.57 93.69 160.755 95.235 160.755 97.47C160.755 99.75 162.18 100.965 164.295 100.965C165.51 100.965 166.47 100.44 167.22 99.765C167.13 102.105 166.02 103.605 164.34 103.605C163.47 103.605 162.81 103.29 162.3 102.93L161.4 104.31C162 104.775 163.02 105.21 164.265 105.21ZM164.64 99.405C163.08 99.405 162.54 98.565 162.54 97.41C162.54 96.09 163.335 95.31 164.685 95.31C166.08 95.31 167.055 96.165 167.205 98.31C166.725 98.88 165.69 99.405 164.64 99.405ZM175.511 105H177.326V102.72H179.201V101.1H177.326V93.9H175.166L170.111 101.25V102.72H175.511V105ZM172.136 101.1L175.481 96.135H175.511V101.1H172.136ZM183.44 105.21C186.05 105.21 188.24 103.17 188.24 99.255C188.24 95.55 186.5 93.69 183.95 93.69C181.745 93.69 179.93 95.235 179.93 97.47C179.93 99.75 181.355 100.965 183.47 100.965C184.685 100.965 185.645 100.44 186.395 99.765C186.305 102.105 185.195 103.605 183.515 103.605C182.645 103.605 181.985 103.29 181.475 102.93L180.575 104.31C181.175 104.775 182.195 105.21 183.44 105.21ZM183.815 99.405C182.255 99.405 181.715 98.565 181.715 97.41C181.715 96.09 182.51 95.31 183.86 95.31C185.255 95.31 186.23 96.165 186.38 98.31C185.9 98.88 184.865 99.405 183.815 99.405ZM193.261 105.21C195.841 105.21 197.416 103.575 197.416 101.265C197.416 99.075 196.096 97.59 193.876 97.59C192.721 97.59 191.986 97.95 191.551 98.415L191.776 95.55H196.576L196.711 93.9H190.321L189.886 99.81L191.131 100.215C191.731 99.435 192.466 99.15 193.381 99.15C194.716 99.15 195.556 99.855 195.556 101.325C195.556 102.615 194.806 103.56 193.171 103.56C192.016 103.56 191.176 103.005 190.426 102.3L189.271 103.53C190.171 104.535 191.551 105.21 193.261 105.21Z" fill="#09051C"/>
<path opacity="0.3" d="M33.274 54H36.004C39.294 54 41.226 52.306 41.226 48.792C41.226 45.32 39.336 43.64 36.004 43.64H33.274V54ZM34.506 52.894V44.774H36.13C38.65 44.774 39.994 46.006 39.994 48.792C39.994 51.676 38.664 52.894 36.158 52.894H34.506ZM46.3611 54.154C47.7471 54.154 48.6851 53.566 49.3711 52.586L48.6711 51.97C48.1111 52.74 47.5091 53.174 46.4451 53.174C45.2271 53.174 44.2611 52.278 44.2191 50.612H49.4411V50.36C49.4411 47.686 48.1111 46.454 46.3611 46.454C44.8071 46.454 43.0151 47.616 43.0151 50.304C43.0151 52.88 44.6111 54.154 46.3611 54.154ZM44.2471 49.674C44.4151 48.148 45.3531 47.462 46.3471 47.462C47.5651 47.462 48.1951 48.358 48.2931 49.674H44.2471ZM51.7437 54H52.9477V43.64H51.7437V54ZM55.7157 45.026H56.9757V43.85H55.7157V45.026ZM55.7437 54H56.9477V46.608H55.7437V54ZM61.5917 54.028H62.8097L65.5117 46.608H64.3077L62.2637 52.6H62.2357L60.1637 46.608H58.8757L61.5917 54.028ZM69.9353 54.154C71.3213 54.154 72.2593 53.566 72.9453 52.586L72.2453 51.97C71.6853 52.74 71.0833 53.174 70.0193 53.174C68.8013 53.174 67.8353 52.278 67.7933 50.612H73.0153V50.36C73.0153 47.686 71.6853 46.454 69.9353 46.454C68.3813 46.454 66.5893 47.616 66.5893 50.304C66.5893 52.88 68.1853 54.154 69.9353 54.154ZM67.8213 49.674C67.9893 48.148 68.9273 47.462 69.9213 47.462C71.1393 47.462 71.7693 48.358 71.8673 49.674H67.8213ZM75.2339 54H76.4379V49.226C76.9839 48.176 77.8659 47.56 79.0419 47.56C79.0839 47.56 79.3499 47.56 79.3919 47.574L79.4759 46.454H79.3219C77.8799 46.454 77.0119 47.126 76.4659 47.98H76.4379V46.608H75.2339V54ZM87.3708 54H88.6028V44.774H91.9068V43.64H84.0808V44.774H87.3708V54ZM95.0568 54.154C96.8628 54.154 98.4868 52.838 98.4868 50.304C98.4868 47.756 96.8628 46.454 95.0568 46.454C93.2368 46.454 91.6128 47.756 91.6128 50.304C91.6128 52.838 93.2508 54.154 95.0568 54.154ZM95.0568 53.132C93.5588 53.132 92.8308 51.872 92.8308 50.304C92.8308 48.638 93.6428 47.49 95.0568 47.49C96.5268 47.49 97.2688 48.764 97.2688 50.304C97.2688 51.998 96.4568 53.132 95.0568 53.132Z" fill="#3B3B3B"/>
<path d="M309.274 55H315.924V53.88H310.506V50.114H314.314V49.008H310.506V45.774H315.63V44.64H309.274V55ZM320.344 55.112C321.45 55.112 322.192 54.594 322.78 53.95C322.78 54.328 322.864 54.762 322.948 55H324.208C324.04 54.622 323.984 54.076 323.984 53.18V44.64H322.78V48.546C322.22 47.902 321.38 47.454 320.484 47.454C318.678 47.454 317.334 48.742 317.334 51.318C317.334 53.894 318.65 55.112 320.344 55.112ZM320.638 54.118C319.448 54.118 318.538 53.222 318.538 51.332C318.538 49.386 319.364 48.476 320.652 48.476C321.436 48.476 322.136 48.868 322.78 49.596V52.984C322.164 53.656 321.492 54.118 320.638 54.118ZM326.677 46.026H327.937V44.85H326.677V46.026ZM326.705 55H327.909V47.608H326.705V55ZM333.211 55.098C333.589 55.098 334.051 55.056 334.261 55.014V54.02C334.065 54.076 333.771 54.118 333.505 54.118C332.609 54.118 332.357 53.726 332.357 52.942V48.602H334.275V47.608H332.357V44.976H331.153V47.608H329.865V48.602H331.153V53.208C331.153 54.496 331.657 55.098 333.211 55.098Z" fill="url(#paint0_linear_196_6)"/>
<circle cx="49.5" cy="87.5" r="16.5" fill="#FFE14D"/>
<mask id="mask0_196_6" style="mask-type:alpha" maskUnits="userSpaceOnUse" x="33" y="71" width="33" height="33">
<circle cx="49.5" cy="87.5" r="16.5" fill="#FFE14D"/>
</mask>
<g mask="url(#mask0_196_6)">
<path d="M58 106L49.5 97L54.5 89V78.5L69 95L58 106Z" fill="#F8D52B"/>
</g>
<path d="M49.5001 77.0049C45.096 77.0049 41.5039 80.5969 41.5039 85.001C41.5039 86.7479 42.0575 88.4086 43.1032 89.7987L49.008 97.7539C49.094 97.8768 49.3278 97.9999 49.5001 97.9999C49.6846 97.9999 49.9061 97.8646 49.9922 97.7538C50.0167 97.7169 55.9585 89.7125 56.0077 89.6387C56.02 89.6387 56.02 89.6387 56.02 89.6265C56.9796 88.2733 57.4962 86.674 57.4962 85.001C57.4962 80.597 53.9042 77.0049 49.5001 77.0049ZM49.5001 89.3067C47.1259 89.3067 45.1945 87.3753 45.1945 85.001C45.1945 82.6268 47.1259 80.6954 49.5001 80.6954C51.8742 80.6954 53.8057 82.6268 53.8057 85.001C53.8057 87.3753 51.8742 89.3067 49.5001 89.3067Z" fill="#FF833D"/>
<path d="M49.5 77V80.6905C51.8741 80.6905 53.8056 82.6219 53.8056 84.9962C53.8056 87.3704 51.8741 89.3018 49.5 89.3018V97.995C49.6846 97.995 49.9061 97.8597 49.9921 97.7489C50.0166 97.712 55.9584 89.7077 56.0077 89.6338C56.02 89.6338 56.02 89.6338 56.02 89.6216C56.9795 88.2684 57.4961 86.6691 57.4961 84.9962C57.4962 80.5921 53.9041 77 49.5 77Z" fill="#E86D28"/>
<defs>
<filter id="filter0_d_196_6" x="-18" y="0" width="435" height="208" filterUnits="userSpaceOnUse" color-interpolation-filters="sRGB">
<feFlood flood-opacity="0" result="BackgroundImageFix"/>
<feColorMatrix in="SourceAlpha" type="matrix" values="0 0 0 0 0 0 0 0 0 0 0 0 0 0 0 0 0 0 127 0" result="hardAlpha"/>
<feOffset dx="12" dy="26"/>
<feGaussianBlur stdDeviation="25"/>
<feColorMatrix type="matrix" values="0 0 0 0 0.352941 0 0 0 0 0.423529 0 0 0 0 0.917647 0 0 0 0.07 0"/>
<feBlend mode="normal" in2="BackgroundImageFix" result="effect1_dropShadow_196_6"/>
<feBlend mode="normal" in="SourceGraphic" in2="effect1_dropShadow_196_6" result="shape"/>
</filter>
<linearGradient id="paint0_linear_196_6" x1="308" y1="43.1404" x2="337.301" y2="51.8956" gradientUnits="userSpaceOnUse">
<stop stop-color="#53E88B"/>
<stop offset="1" stop-color="#15BE77"/>
</linearGradient>
</defs>
</svg>
