<svg width="148" height="24" viewBox="0 0 148 24" fill="none" xmlns="http://www.w3.org/2000/svg">
<circle cx="4" cy="12" r="4" fill="#09051C"/>
<circle cx="16" cy="12" r="4" fill="#09051C"/>
<circle cx="28" cy="12" r="4" fill="#09051C"/>
<circle cx="40" cy="12" r="4" fill="#09051C"/>
<path d="M65.256 19.68C65.7787 19.68 66.2933 19.616 66.8 19.488C67.312 19.36 67.8027 19.1653 68.272 18.904L67.896 18.008C67.5387 18.216 67.1307 18.3787 66.672 18.496C66.2187 18.6133 65.7653 18.672 65.312 18.672C64.384 18.672 63.5467 18.4587 62.8 18.032C62.0587 17.6107 61.4693 17.032 61.032 16.296C60.5947 15.5547 60.3707 14.7093 60.36 13.76C60.3493 12.8427 60.5387 12 60.928 11.232C61.3173 10.464 61.8853 9.848 62.632 9.384C63.3787 8.92 64.2853 8.688 65.352 8.688C66.232 8.688 67.04 8.86933 67.776 9.232C68.512 9.59467 69.0933 10.1387 69.52 10.864C69.9467 11.584 70.1387 12.4827 70.096 13.56C70.0693 14.152 69.9413 14.624 69.712 14.976C69.488 15.328 69.1627 15.504 68.736 15.504C68.3093 15.504 68.0027 15.3813 67.816 15.136C67.6347 14.8907 67.544 14.568 67.544 14.168L67.552 11.568H66.704V11.904C66.4853 11.712 66.2293 11.5707 65.936 11.48C65.6427 11.3893 65.36 11.344 65.088 11.344C64.3787 11.344 63.7893 11.5707 63.32 12.024C62.856 12.472 62.624 13.0773 62.624 13.84C62.624 14.576 62.848 15.176 63.296 15.64C63.7493 16.0987 64.3387 16.328 65.064 16.328C65.3947 16.328 65.7173 16.2693 66.032 16.152C66.352 16.0347 66.6187 15.848 66.832 15.592C67.008 15.8907 67.256 16.12 67.576 16.28C67.9013 16.44 68.2693 16.52 68.68 16.52C69.4373 16.52 70.0267 16.2667 70.448 15.76C70.8747 15.248 71.1147 14.4853 71.168 13.472C71.2107 12.736 71.1173 12.024 70.888 11.336C70.6587 10.648 70.2987 10.0293 69.808 9.48C69.3173 8.92533 68.6933 8.488 67.936 8.168C67.184 7.84267 66.304 7.68 65.296 7.68C64.1227 7.68 63.0827 7.93867 62.176 8.456C61.2693 8.968 60.56 9.68 60.048 10.592C59.536 11.504 59.28 12.5627 59.28 13.768C59.28 14.616 59.4293 15.4 59.728 16.12C60.032 16.84 60.4533 17.4667 60.992 18C61.5307 18.528 62.1627 18.9387 62.888 19.232C63.6133 19.5307 64.4027 19.68 65.256 19.68ZM65.128 15.304C64.68 15.304 64.3253 15.1787 64.064 14.928C63.8027 14.6773 63.672 14.312 63.672 13.832C63.672 13.3627 63.7973 12.9973 64.048 12.736C64.2987 12.4747 64.6667 12.344 65.152 12.344C65.5733 12.344 65.9093 12.4693 66.16 12.72C66.416 12.9707 66.544 13.3413 66.544 13.832C66.544 14.3333 66.4107 14.704 66.144 14.944C65.8827 15.184 65.544 15.304 65.128 15.304ZM76.9251 18.24C77.5065 18.24 78.0238 18.128 78.4771 17.904C78.9305 17.68 79.3118 17.3707 79.6211 16.976V17.864C79.6265 18.8773 79.4265 19.6427 79.0211 20.16C78.6158 20.6773 77.9438 20.936 77.0051 20.936C76.5518 20.936 76.1065 20.8293 75.6691 20.616C75.2318 20.408 74.8958 20.064 74.6611 19.584L73.5971 20.176C73.9651 20.848 74.4585 21.3333 75.0771 21.632C75.7011 21.9307 76.3438 22.08 77.0051 22.08C78.0611 22.08 78.9038 21.8507 79.5331 21.392C80.1625 20.9333 80.5545 20.2213 80.7091 19.256C80.7465 19.0373 80.7705 18.8133 80.7811 18.584C80.7971 18.36 80.8051 18.1253 80.8051 17.88V9.36H79.7571V10.552C79.4425 10.104 79.0425 9.75467 78.5571 9.504C78.0771 9.248 77.5171 9.12 76.8771 9.12C76.0878 9.12 75.4105 9.32 74.8451 9.72C74.2798 10.12 73.8451 10.664 73.5411 11.352C73.2425 12.04 73.0931 12.8133 73.0931 13.672C73.0931 14.536 73.2425 15.312 73.5411 16C73.8451 16.688 74.2825 17.2347 74.8531 17.64C75.4291 18.04 76.1198 18.24 76.9251 18.24ZM77.0451 17.144C76.4478 17.144 75.9465 16.992 75.5411 16.688C75.1411 16.3787 74.8398 15.9627 74.6371 15.44C74.4398 14.9173 74.3411 14.328 74.3411 13.672C74.3411 13.0213 74.4398 12.4347 74.6371 11.912C74.8345 11.3893 75.1331 10.976 75.5331 10.672C75.9385 10.368 76.4505 10.216 77.0691 10.216C77.9705 10.216 78.6425 10.5387 79.0851 11.184C79.5331 11.824 79.7571 12.6533 79.7571 13.672C79.7571 14.3387 79.6585 14.9333 79.4611 15.456C79.2638 15.9787 78.9651 16.392 78.5651 16.696C78.1651 16.9947 77.6585 17.144 77.0451 17.144ZM83.0339 18H84.2179V12.424C84.2179 11.7467 84.4019 11.2053 84.7699 10.8C85.1379 10.3893 85.6205 10.184 86.2179 10.184C86.8152 10.184 87.2952 10.384 87.6579 10.784C88.0259 11.1787 88.2099 11.72 88.2099 12.408L88.2019 18H89.3619L89.3699 12.424C89.3699 11.8853 89.4685 11.4533 89.6659 11.128C89.8685 10.7973 90.1245 10.5573 90.4339 10.408C90.7432 10.2587 91.0605 10.184 91.3859 10.184C91.9565 10.184 92.4259 10.376 92.7939 10.76C93.1672 11.1387 93.3539 11.6613 93.3539 12.328L93.3459 18H94.5219L94.5299 12.104C94.5299 11.192 94.2685 10.4693 93.7459 9.936C93.2285 9.39733 92.5325 9.128 91.6579 9.128C91.0819 9.128 90.5645 9.25867 90.1059 9.52C89.6472 9.776 89.2925 10.1307 89.0419 10.584C88.8072 10.1093 88.4685 9.74933 88.0259 9.504C87.5885 9.25333 87.0872 9.128 86.5219 9.128C86.0099 9.128 85.5432 9.232 85.1219 9.44C84.7005 9.64267 84.3565 9.92 84.0899 10.272V9.36H83.0339V18ZM99.0764 18.24C100.586 18.24 101.682 17.6827 102.364 16.568V18H103.412V12.632C103.412 12.312 103.396 11.9973 103.364 11.688C103.332 11.3787 103.263 11.0987 103.156 10.848C102.927 10.288 102.535 9.86133 101.98 9.568C101.431 9.26933 100.762 9.12 99.9724 9.12C99.023 9.12 98.2497 9.33333 97.6524 9.76C97.055 10.1867 96.655 10.7867 96.4524 11.56L97.5964 11.896C97.7617 11.32 98.047 10.8987 98.4524 10.632C98.863 10.3653 99.3644 10.232 99.9564 10.232C100.778 10.232 101.364 10.424 101.716 10.808C102.068 11.1867 102.25 11.7653 102.26 12.544C101.876 12.5973 101.452 12.6533 100.988 12.712C100.53 12.7707 100.068 12.8373 99.6044 12.912C99.1404 12.9867 98.7137 13.072 98.3244 13.168C97.679 13.3387 97.151 13.624 96.7404 14.024C96.3297 14.4187 96.1244 14.9707 96.1244 15.68C96.1244 16.1387 96.2337 16.5627 96.4524 16.952C96.671 17.3413 96.999 17.6533 97.4364 17.888C97.879 18.1227 98.4257 18.24 99.0764 18.24ZM99.2124 17.224C98.7484 17.224 98.375 17.1493 98.0924 17C97.815 16.8453 97.6124 16.6507 97.4844 16.416C97.3617 16.176 97.3004 15.9307 97.3004 15.68C97.3004 15.2107 97.4577 14.8587 97.7724 14.624C98.087 14.3893 98.4284 14.2187 98.7964 14.112C99.271 13.984 99.823 13.88 100.452 13.8C101.082 13.72 101.679 13.6453 102.244 13.576C102.244 13.7733 102.236 14 102.22 14.256C102.21 14.5067 102.18 14.7387 102.132 14.952C102.02 15.6027 101.711 16.144 101.204 16.576C100.703 17.008 100.039 17.224 99.2124 17.224ZM105.655 7.72H106.831V6.4H105.655V7.72ZM105.655 18H106.831V9.36H105.655V18ZM109.389 18H110.565V6.24H109.389V18ZM113.188 18H114.556V16.632H113.188V18ZM120.61 18.24C121.469 18.24 122.205 18.04 122.818 17.64C123.437 17.2347 123.909 16.648 124.234 15.88L123.05 15.528C122.613 16.584 121.8 17.112 120.61 17.112C119.682 17.112 118.984 16.8 118.514 16.176C118.045 15.5467 117.805 14.7147 117.794 13.68C117.805 12.672 118.037 11.848 118.49 11.208C118.949 10.568 119.656 10.248 120.61 10.248C121.176 10.248 121.677 10.392 122.114 10.68C122.557 10.9627 122.88 11.3627 123.082 11.88L124.234 11.512C123.994 10.7707 123.549 10.1867 122.898 9.76C122.253 9.33333 121.493 9.12 120.618 9.12C119.76 9.12 119.029 9.312 118.426 9.696C117.824 10.0747 117.362 10.608 117.042 11.296C116.722 11.9787 116.557 12.7733 116.546 13.68C116.557 14.5653 116.717 15.352 117.026 16.04C117.341 16.728 117.8 17.2667 118.402 17.656C119.005 18.0453 119.741 18.24 120.61 18.24ZM129.259 18.24C130.113 18.24 130.843 18.048 131.451 17.664C132.065 17.28 132.534 16.7467 132.859 16.064C133.19 15.376 133.355 14.5787 133.355 13.672C133.355 12.7813 133.193 11.9947 132.867 11.312C132.547 10.624 132.081 10.088 131.467 9.704C130.859 9.31467 130.123 9.12 129.259 9.12C128.417 9.12 127.689 9.312 127.075 9.696C126.467 10.0747 125.998 10.6053 125.667 11.288C125.337 11.9707 125.171 12.7653 125.171 13.672C125.171 14.5627 125.331 15.352 125.651 16.04C125.977 16.728 126.443 17.2667 127.051 17.656C127.665 18.0453 128.401 18.24 129.259 18.24ZM129.259 17.112C128.326 17.112 127.619 16.8 127.139 16.176C126.659 15.5467 126.419 14.712 126.419 13.672C126.419 12.664 126.651 11.8427 127.115 11.208C127.579 10.568 128.294 10.248 129.259 10.248C130.214 10.248 130.926 10.56 131.395 11.184C131.87 11.8027 132.107 12.632 132.107 13.672C132.107 14.6907 131.873 15.52 131.403 16.16C130.934 16.7947 130.219 17.112 129.259 17.112ZM135.112 18H136.296V12.424C136.296 11.7467 136.48 11.2053 136.848 10.8C137.216 10.3893 137.699 10.184 138.296 10.184C138.893 10.184 139.373 10.384 139.736 10.784C140.104 11.1787 140.288 11.72 140.288 12.408L140.28 18H141.44L141.448 12.424C141.448 11.8853 141.547 11.4533 141.744 11.128C141.947 10.7973 142.203 10.5573 142.512 10.408C142.821 10.2587 143.139 10.184 143.464 10.184C144.035 10.184 144.504 10.376 144.872 10.76C145.245 11.1387 145.432 11.6613 145.432 12.328L145.424 18H146.6L146.608 12.104C146.608 11.192 146.347 10.4693 145.824 9.936C145.307 9.39733 144.611 9.128 143.736 9.128C143.16 9.128 142.643 9.25867 142.184 9.52C141.725 9.776 141.371 10.1307 141.12 10.584C140.885 10.1093 140.547 9.74933 140.104 9.504C139.667 9.25333 139.165 9.128 138.6 9.128C138.088 9.128 137.621 9.232 137.2 9.44C136.779 9.64267 136.435 9.92 136.168 10.272V9.36H135.112V18Z" fill="#09051C"/>
</svg>
