<svg width="153" height="24" viewBox="0 0 153 24" fill="none" xmlns="http://www.w3.org/2000/svg">
<circle cx="4" cy="12" r="4" fill="#09051C"/>
<circle cx="16" cy="12" r="4" fill="#09051C"/>
<circle cx="28" cy="12" r="4" fill="#09051C"/>
<circle cx="40" cy="12" r="4" fill="#09051C"/>
<circle cx="62" cy="12" r="4" fill="#09051C"/>
<circle cx="74" cy="12" r="4" fill="#09051C"/>
<circle cx="86" cy="12" r="4" fill="#09051C"/>
<circle cx="98" cy="12" r="4" fill="#09051C"/>
<path d="M122.192 18H123.376V15.768H124.632V14.648H123.376V11.288H122.192V14.648H118.12L121.976 6.48H120.656L116.8 14.648V15.768H122.192V18ZM126.238 17.992H133.758V16.864H128.03L132.126 13.168C132.686 12.6667 133.096 12.1813 133.358 11.712C133.624 11.2427 133.758 10.6453 133.758 9.92C133.758 9.232 133.595 8.61067 133.27 8.056C132.95 7.50133 132.51 7.06133 131.95 6.736C131.395 6.40533 130.768 6.24 130.07 6.24C129.36 6.24 128.72 6.4 128.15 6.72C127.584 7.03467 127.136 7.46933 126.806 8.024C126.475 8.57333 126.31 9.2 126.31 9.904H127.51C127.504 9.45067 127.611 9.032 127.83 8.648C128.054 8.264 128.358 7.95467 128.742 7.72C129.126 7.48533 129.563 7.368 130.054 7.368C130.528 7.368 130.955 7.48267 131.334 7.712C131.712 7.936 132.011 8.24 132.23 8.624C132.454 9.008 132.566 9.43733 132.566 9.912C132.566 10.312 132.491 10.696 132.342 11.064C132.192 11.432 131.896 11.816 131.454 12.216L126.246 16.92L126.238 17.992ZM138.779 18.232C139.488 18.232 140.117 18.0747 140.667 17.76C141.221 17.44 141.656 17 141.971 16.44C142.291 15.8747 142.451 15.224 142.451 14.488C142.451 13.768 142.304 13.1333 142.011 12.584C141.717 12.0347 141.307 11.608 140.779 11.304C140.251 10.9947 139.637 10.8427 138.939 10.848L142.315 7.624V6.48H135.659V7.608H140.819L136.859 11.264L137.451 12.2C137.648 12.104 137.861 12.0267 138.091 11.968C138.32 11.9093 138.539 11.88 138.747 11.88C139.493 11.88 140.093 12.12 140.547 12.6C141.005 13.0747 141.235 13.704 141.235 14.488C141.235 15.2613 141.013 15.8853 140.571 16.36C140.133 16.8347 139.531 17.08 138.763 17.096C138.213 17.1067 137.717 16.9653 137.275 16.672C136.832 16.3787 136.515 15.9467 136.323 15.376L135.203 15.712C135.448 16.4907 135.891 17.1067 136.531 17.56C137.176 18.008 137.925 18.232 138.779 18.232ZM147.926 18.24C148.641 18.24 149.294 18.0667 149.886 17.72C150.478 17.368 150.953 16.8987 151.31 16.312C151.668 15.7253 151.846 15.08 151.846 14.376C151.846 13.6667 151.678 13.024 151.342 12.448C151.006 11.872 150.553 11.416 149.982 11.08C149.412 10.7387 148.772 10.568 148.062 10.568C147.63 10.568 147.212 10.6453 146.806 10.8C146.401 10.9493 146.041 11.1627 145.726 11.44L145.958 7.608H151.038V6.48H144.886L144.534 12.472L145.606 12.92C145.841 12.5573 146.156 12.2587 146.55 12.024C146.945 11.7893 147.414 11.672 147.958 11.672C148.444 11.672 148.892 11.792 149.302 12.032C149.713 12.272 150.044 12.5973 150.294 13.008C150.545 13.4133 150.67 13.8693 150.67 14.376C150.67 14.8667 150.55 15.3173 150.31 15.728C150.07 16.1387 149.745 16.4693 149.334 16.72C148.929 16.9653 148.47 17.088 147.958 17.088C147.366 17.088 146.82 16.9067 146.318 16.544C145.817 16.1813 145.489 15.688 145.334 15.064L144.206 15.368C144.361 15.928 144.617 16.424 144.974 16.856C145.332 17.288 145.764 17.6267 146.27 17.872C146.777 18.1173 147.329 18.24 147.926 18.24Z" fill="#09051C"/>
</svg>
