<svg width="28" height="26" viewBox="0 0 28 26" fill="none" xmlns="http://www.w3.org/2000/svg">
<g opacity="0.5">
<path opacity="0.4" fill-rule="evenodd" clip-rule="evenodd" d="M5.91064 22.5885C5.91064 21.7485 6.59064 21.0685 7.43064 21.0685C8.26064 21.0685 8.94064 21.7485 8.94064 22.5885C8.94064 23.4185 8.26064 24.0985 7.43064 24.0985C6.59064 24.0985 5.91064 23.4185 5.91064 22.5885ZM17.1606 22.5885C17.1606 21.7485 17.8406 21.0685 18.6806 21.0685C19.5106 21.0685 20.1906 21.7485 20.1906 22.5885C20.1906 23.4185 19.5106 24.0985 18.6806 24.0985C17.8406 24.0985 17.1606 23.4185 17.1606 22.5885Z" fill="url(#paint0_linear_192_2312)"/>
<path fill-rule="evenodd" clip-rule="evenodd" d="M20.1907 8.34896C20.8007 8.34896 21.2007 8.55896 21.6007 9.01896C22.0007 9.47896 22.0707 10.139 21.9807 10.738L21.0307 17.298C20.8507 18.559 19.7707 19.488 18.5007 19.488H7.59074C6.26074 19.488 5.16074 18.468 5.05074 17.149L4.13074 6.24796L2.62074 5.98796C2.22074 5.91796 1.94074 5.52796 2.01074 5.12796C2.08074 4.71796 2.47074 4.44796 2.88074 4.50796L5.26574 4.86796C5.60574 4.92896 5.85574 5.20796 5.88574 5.54796L6.07574 7.78796C6.10574 8.10896 6.36574 8.34896 6.68574 8.34896H20.1907ZM14.1307 13.548H16.9007C17.3207 13.548 17.6507 13.208 17.6507 12.798C17.6507 12.378 17.3207 12.048 16.9007 12.048H14.1307C13.7107 12.048 13.3807 12.378 13.3807 12.798C13.3807 13.208 13.7107 13.548 14.1307 13.548Z" fill="url(#paint1_linear_192_2312)"/>
</g>
<circle cx="21.5" cy="6.5" r="6" fill="#FF4B4B" stroke="white"/>
<path d="M19.729 10H21.205L23.77 4.42V3.34H19.108V4.519H22.276L19.729 10Z" fill="white"/>
<defs>
<linearGradient id="paint0_linear_192_2312" x1="5.91064" y1="20.8824" x2="16.9209" y2="28.922" gradientUnits="userSpaceOnUse">
<stop stop-color="#53E88B"/>
<stop offset="1" stop-color="#15BE77"/>
</linearGradient>
<linearGradient id="paint1_linear_192_2312" x1="2" y1="3.5793" x2="24.6895" y2="8.2738" gradientUnits="userSpaceOnUse">
<stop stop-color="#53E88B"/>
<stop offset="1" stop-color="#15BE77"/>
</linearGradient>
</defs>
</svg>
