<svg width="105" height="44" viewBox="0 0 105 44" fill="none" xmlns="http://www.w3.org/2000/svg">
<rect opacity="0.1" width="105" height="44" rx="12" fill="url(#paint0_linear_192_2303)"/>
<path d="M26.1437 30.7821V27.7152C26.1437 26.9381 26.7757 26.3067 27.5584 26.3018H30.4326C31.2189 26.3018 31.8563 26.9346 31.8563 27.7152V30.7732C31.8562 31.4473 32.404 31.9951 33.0829 32H35.0438C35.9596 32.0023 36.8388 31.6428 37.4872 31.0007C38.1356 30.3586 38.5 29.4868 38.5 28.5775V19.8658C38.5 19.1314 38.1721 18.4347 37.6046 17.9635L30.943 12.6743C29.7785 11.7491 28.1154 11.779 26.9854 12.7454L20.467 17.9635C19.8727 18.4208 19.5176 19.1196 19.5 19.8658V28.5686C19.5 30.4637 21.0474 32 22.9562 32H24.8723C25.1992 32.0023 25.5135 31.8751 25.7455 31.6464C25.9775 31.4178 26.1079 31.1067 26.1079 30.7821H26.1437Z" fill="url(#paint1_linear_192_2303)"/>
<path d="M54.008 27H55.508V23.052H59.54V27H61.04V18.12H59.54V21.66H55.508V18.12H54.008V27ZM65.6229 27.132C67.1709 27.132 68.7309 26.148 68.7309 23.82C68.7309 21.468 67.1709 20.508 65.6229 20.508C64.0629 20.508 62.5149 21.468 62.5149 23.82C62.5149 26.148 64.0749 27.132 65.6229 27.132ZM65.6229 25.896C64.4949 25.896 64.0029 25.032 64.0029 23.82C64.0029 22.536 64.5549 21.768 65.6229 21.768C66.7389 21.768 67.2429 22.632 67.2429 23.82C67.2429 25.128 66.6909 25.896 65.6229 25.896ZM70.0233 27H71.4993V22.596C72.0513 22.104 72.5433 21.768 73.1313 21.768C73.8273 21.768 74.0313 22.092 74.0313 22.8V27H75.5073V22.596C76.0593 22.104 76.5393 21.768 77.1393 21.768C77.8353 21.768 78.0393 22.092 78.0393 22.8V27H79.5153V22.428C79.5153 21.288 78.9513 20.508 77.6553 20.508C76.6833 20.508 75.9273 21 75.4233 21.552C75.1713 20.928 74.7513 20.508 73.6833 20.508C72.7113 20.508 71.9913 20.964 71.4993 21.504V20.628H70.0233V27ZM83.8213 27.132C84.9613 27.132 85.8373 26.712 86.4973 25.98L85.7173 25.212C85.2373 25.68 84.7573 25.956 83.9293 25.956C82.9933 25.956 82.2853 25.452 82.2253 24.3H86.5813V23.952C86.5813 21.36 85.2133 20.508 83.7853 20.508C82.4653 20.508 80.7493 21.396 80.7493 23.82C80.7493 26.16 82.2253 27.132 83.8213 27.132ZM82.2493 23.196C82.3933 22.116 83.0533 21.708 83.7733 21.708C84.6613 21.708 85.1413 22.224 85.2253 23.196H82.2493Z" fill="#09051C"/>
<defs>
<linearGradient id="paint0_linear_192_2303" x1="-1.48896e-07" y1="-2.70175" x2="109.195" y2="37.6712" gradientUnits="userSpaceOnUse">
<stop stop-color="#53E88B"/>
<stop offset="1" stop-color="#15BE77"/>
</linearGradient>
<linearGradient id="paint1_linear_192_2303" x1="19.5" y1="10.7719" x2="41.484" y2="14.0077" gradientUnits="userSpaceOnUse">
<stop stop-color="#53E88B"/>
<stop offset="1" stop-color="#15BE77"/>
</linearGradient>
</defs>
</svg>
