<svg width="78" height="78" viewBox="0 0 78 78" fill="none" xmlns="http://www.w3.org/2000/svg">
<circle opacity="0.1" cx="39" cy="39" r="39" fill="url(#paint0_linear_186_1680)"/>
<path opacity="0.4" fill-rule="evenodd" clip-rule="evenodd" d="M43.8224 33.4454C43.8451 33.612 43.8666 33.769 43.878 33.9767L31.8626 45.9907H31.5847C29.8247 45.9907 28.5412 44.747 28.303 42.8152C28.0383 40.8834 28.0912 37.5756 28.303 35.8159C28.5544 33.9899 29.9041 32.733 31.5847 32.733H33.874L38.2408 29.1592C38.7702 28.7107 39.7097 28.2873 40.4375 28.2727C41.7608 28.2727 42.9782 29.2002 43.4149 30.6821C43.5869 31.3027 43.6531 31.9259 43.706 32.5199L43.8119 33.3681C43.8154 33.3942 43.8189 33.4199 43.8224 33.4454ZM42.6009 41.1643C42.7809 40.9884 43.1792 40.864 43.3592 40.909C43.8461 41.0334 43.9401 41.7306 43.9335 42.2784C43.911 43.8688 43.8567 44.975 43.772 45.659L43.7125 46.2227L43.7114 46.2332C43.6549 46.8002 43.5963 47.3869 43.4293 48.0129C42.9873 49.4921 41.8056 50.4527 40.4638 50.4527C40.4188 50.4527 40.3752 50.4527 40.3302 50.4514C39.5891 50.4514 38.7832 50.0068 38.3267 49.6191L36.7004 48.3608C36.0837 47.9017 36.265 47.1674 36.6117 46.7427C36.8706 46.4266 39.9803 43.5726 41.6151 42.0722C42.1702 41.5627 42.5553 41.2093 42.6009 41.1643Z" fill="url(#paint1_linear_186_1680)"/>
<path d="M51.1594 28.0872C50.6923 27.636 49.9751 27.6387 49.5252 28.0886L28.0879 49.5232C27.6367 49.9744 27.6367 50.6929 28.0919 51.1652C28.3248 51.3809 28.6133 51.5 28.9057 51.5C29.2048 51.5 29.5118 51.3743 29.7248 51.1613L51.1607 29.7266C51.6133 29.2741 51.6133 28.5411 51.1594 28.0872Z" fill="url(#paint2_linear_186_1680)"/>
<defs>
<linearGradient id="paint0_linear_186_1680" x1="-1.10608e-07" y1="-4.78947" x2="90.0436" y2="9.16146" gradientUnits="userSpaceOnUse">
<stop stop-color="#53E88B"/>
<stop offset="1" stop-color="#15BE77"/>
</linearGradient>
<linearGradient id="paint1_linear_186_1680" x1="28.1238" y1="26.9108" x2="46.5879" y2="28.9499" gradientUnits="userSpaceOnUse">
<stop stop-color="#53E88B"/>
<stop offset="1" stop-color="#15BE77"/>
</linearGradient>
<linearGradient id="paint2_linear_186_1680" x1="27.75" y1="26.2917" x2="55.1671" y2="30.5395" gradientUnits="userSpaceOnUse">
<stop stop-color="#53E88B"/>
<stop offset="1" stop-color="#15BE77"/>
</linearGradient>
</defs>
</svg>
