<svg width="375" height="200" viewBox="0 0 375 200" fill="none" xmlns="http://www.w3.org/2000/svg">
<g filter="url(#filter0_d_196_5)">
<rect x="20" y="24" width="335" height="100" rx="22" fill="white"/>
</g>
<g clip-path="url(#clip0_196_5)">
<path d="M72.181 83.656H67.4282C67.2708 83.6559 67.1186 83.7123 66.999 83.815C66.8793 83.9178 66.8001 84.0601 66.7756 84.2164L64.8534 96.4698C64.8445 96.5267 64.8481 96.5848 64.8637 96.6401C64.8794 96.6955 64.9067 96.7468 64.944 96.7905C64.9812 96.8342 65.0275 96.8692 65.0795 96.8932C65.1315 96.9173 65.1881 96.9296 65.2453 96.9296H67.5144C67.6718 96.9296 67.8241 96.8731 67.9437 96.7703C68.0634 96.6674 68.1425 96.5249 68.1669 96.3685L68.6853 93.0636C68.7097 92.9073 68.7887 92.7649 68.9083 92.662C69.0278 92.5591 69.1799 92.5026 69.3372 92.5025H70.8418C73.9725 92.5025 75.7794 90.9793 76.2513 87.9608C76.4639 86.6402 76.2603 85.6026 75.6453 84.876C74.9698 84.078 73.7717 83.656 72.181 83.656ZM72.7293 88.1313C72.4694 89.846 71.1663 89.846 69.9064 89.846H69.1892L69.6923 86.6437C69.7071 86.55 69.7546 86.4647 69.8263 86.4031C69.898 86.3415 69.9893 86.3076 70.0836 86.3076H70.4123C71.2706 86.3076 72.0802 86.3076 72.4985 86.7995C72.748 87.093 72.8245 87.529 72.7293 88.1313ZM86.3878 88.0761H84.1119C84.0175 88.0761 83.9263 88.11 83.8546 88.1716C83.7829 88.2332 83.7354 88.3185 83.7206 88.4122L83.6199 89.0522L83.4607 88.8202C82.968 88.1013 81.8693 87.8609 80.7726 87.8609C78.2576 87.8609 76.1095 89.7761 75.6912 92.4627C75.4736 93.8028 75.7829 95.0842 76.539 95.9779C77.2326 96.7996 78.2249 97.142 79.4057 97.142C81.4321 97.142 82.5559 95.8319 82.5559 95.8319L82.4544 96.4677C82.4454 96.5246 82.4487 96.5827 82.4642 96.6381C82.4796 96.6936 82.5069 96.745 82.544 96.7888C82.5811 96.8326 82.6272 96.8679 82.6792 96.892C82.7312 96.9162 82.7877 96.9288 82.845 96.9289H84.8951C85.0525 96.9289 85.2048 96.8724 85.3245 96.7696C85.4441 96.6667 85.5233 96.5242 85.5476 96.3678L86.7777 88.5359C86.7868 88.4791 86.7835 88.4211 86.768 88.3658C86.7526 88.3105 86.7254 88.2592 86.6883 88.2155C86.6513 88.1718 86.6052 88.1367 86.5533 88.1126C86.5014 88.0885 86.445 88.0761 86.3878 88.0761ZM83.2154 92.5297C82.9958 93.837 81.9638 94.7146 80.6475 94.7146C79.9866 94.7146 79.4585 94.5015 79.1193 94.0977C78.783 93.6966 78.6551 93.1257 78.7621 92.4899C78.9672 91.1938 80.0165 90.2875 81.3126 90.2875C81.9589 90.2875 82.4843 90.5034 82.8304 90.9108C83.1772 91.3223 83.3148 91.8967 83.2154 92.5297ZM98.5092 88.0761H96.2221C96.1142 88.0763 96.0081 88.1029 95.9127 88.1537C95.8174 88.2044 95.7359 88.2778 95.6752 88.3675L92.5208 93.0391L91.1837 88.5498C91.1427 88.4129 91.0589 88.2929 90.9447 88.2076C90.8306 88.1223 90.6921 88.0762 90.5499 88.0761H88.3024C88.2393 88.0759 88.1771 88.0909 88.121 88.1198C88.0648 88.1487 88.0163 88.1907 87.9795 88.2422C87.9428 88.2937 87.9188 88.3533 87.9095 88.4161C87.9003 88.4788 87.9061 88.5429 87.9265 88.6029L90.4457 96.0359L88.0773 99.3974C88.0352 99.457 88.0102 99.5271 88.0051 99.6C88 99.673 88.015 99.7459 88.0483 99.8108C88.0817 99.8758 88.1322 99.9302 88.1943 99.9682C88.2564 100.006 88.3277 100.026 88.4004 100.026H90.6847C90.7914 100.026 90.8965 100.001 90.991 99.9509C91.0855 99.9013 91.1667 99.8293 91.2275 99.7412L98.8344 88.7015C98.8757 88.6417 98.8998 88.5718 98.9044 88.4992C98.9089 88.4267 98.8935 88.3542 98.86 88.2898C98.8265 88.2254 98.7761 88.1714 98.7143 88.1337C98.6524 88.0961 98.5815 88.0761 98.5092 88.0761Z" fill="#253B80"/>
<path d="M106.081 83.656H101.328C101.171 83.656 101.019 83.7125 100.899 83.8152C100.78 83.918 100.701 84.0602 100.676 84.2163L98.7539 96.4698C98.7449 96.5265 98.7484 96.5846 98.7639 96.6399C98.7794 96.6952 98.8066 96.7465 98.8438 96.7902C98.8809 96.8339 98.927 96.8689 98.9789 96.893C99.0308 96.9171 99.0873 96.9295 99.1445 96.9295H101.584C101.694 96.9294 101.8 96.8897 101.884 96.8177C101.967 96.7458 102.023 96.6462 102.04 96.5368L102.585 93.0635C102.61 92.9072 102.689 92.7648 102.808 92.662C102.928 92.5591 103.08 92.5025 103.237 92.5024H104.741C107.872 92.5024 109.679 90.9792 110.151 87.9608C110.364 86.6402 110.159 85.6026 109.544 84.8759C108.87 84.078 107.672 83.656 106.081 83.656ZM106.63 88.1313C106.371 89.8459 105.068 89.8459 103.807 89.8459H103.09L103.594 86.6437C103.609 86.55 103.656 86.4646 103.728 86.403C103.799 86.3413 103.89 86.3075 103.985 86.3076H104.314C105.171 86.3076 105.981 86.3076 106.4 86.7995C106.649 87.093 106.725 87.529 106.63 88.1313ZM120.288 88.0761H118.013C117.919 88.0758 117.827 88.1096 117.756 88.1713C117.684 88.2329 117.637 88.3184 117.623 88.4121L117.522 89.0522L117.362 88.8202C116.869 88.1012 115.771 87.8609 114.675 87.8609C112.16 87.8609 110.012 89.776 109.594 92.4626C109.377 93.8028 109.685 95.0842 110.441 95.9779C111.136 96.7996 112.127 97.1419 113.308 97.1419C115.334 97.1419 116.458 95.8318 116.458 95.8318L116.356 96.4677C116.347 96.5246 116.351 96.5829 116.366 96.6384C116.382 96.694 116.409 96.7454 116.446 96.7893C116.484 96.8332 116.53 96.8683 116.582 96.8924C116.634 96.9165 116.691 96.9289 116.748 96.9288H118.798C118.955 96.9287 119.107 96.8722 119.227 96.7693C119.346 96.6664 119.425 96.524 119.45 96.3678L120.68 88.5358C120.689 88.4789 120.685 88.4208 120.67 88.3654C120.654 88.3101 120.627 88.2588 120.589 88.2151C120.552 88.1714 120.506 88.1364 120.454 88.1124C120.402 88.0884 120.345 88.076 120.288 88.0761ZM117.115 92.5297C116.897 93.837 115.864 94.7146 114.547 94.7146C113.888 94.7146 113.358 94.5015 113.019 94.0976C112.683 93.6966 112.556 93.1257 112.662 92.4899C112.868 91.1937 113.916 90.2875 115.212 90.2875C115.859 90.2875 116.384 90.5034 116.73 90.9108C117.078 91.3223 117.216 91.8967 117.115 92.5297ZM122.971 83.9921L121.02 96.4698C121.011 96.5265 121.015 96.5846 121.03 96.6399C121.046 96.6952 121.073 96.7465 121.11 96.7902C121.147 96.8339 121.193 96.8689 121.245 96.893C121.297 96.9171 121.354 96.9295 121.411 96.9295H123.372C123.698 96.9295 123.974 96.692 124.024 96.3685L125.948 84.1157C125.957 84.0589 125.954 84.0009 125.938 83.9455C125.923 83.8902 125.895 83.8389 125.858 83.7951C125.821 83.7514 125.775 83.7162 125.723 83.6921C125.671 83.6679 125.615 83.6554 125.557 83.6553H123.361C123.267 83.6556 123.176 83.6897 123.105 83.7514C123.033 83.8131 122.986 83.8984 122.971 83.9921Z" fill="#179BD7"/>
<path d="M45.1159 99.311L45.4793 96.9898L44.6697 96.9709H40.8037L43.4904 79.8433C43.4984 79.7909 43.5248 79.7432 43.5649 79.7089C43.6049 79.6745 43.6559 79.6557 43.7086 79.656H50.2273C52.3913 79.656 53.8848 80.1088 54.6645 81.0024C55.0301 81.4217 55.2629 81.8598 55.3755 82.3419C55.4936 82.8478 55.4957 83.4521 55.3803 84.1893L55.372 84.2431V84.7154L55.7375 84.9236C56.0166 85.0658 56.2674 85.2581 56.4776 85.491C56.7904 85.8494 56.9926 86.305 57.0781 86.8451C57.1663 87.4006 57.1372 88.0616 56.9926 88.8099C56.8258 89.6707 56.5562 90.4205 56.192 91.0339C55.8707 91.5835 55.4387 92.0595 54.9237 92.4314C54.44 92.7765 53.8653 93.0386 53.2155 93.2063C52.5859 93.3712 51.868 93.4543 51.0807 93.4543H50.5733C50.2106 93.4543 49.8582 93.5857 49.5816 93.8211C49.3054 94.0591 49.1222 94.3879 49.0646 94.749L49.0264 94.9579L48.3842 99.0489L48.3551 99.1992C48.3474 99.2467 48.3342 99.2704 48.3147 99.2865C48.2959 99.302 48.2724 99.3106 48.248 99.311H45.1159Z" fill="#253B80"/>
<path d="M56.0838 84.2974C56.0644 84.4224 56.0421 84.5503 56.0171 84.6817C55.1575 89.1192 52.2164 90.6522 48.4602 90.6522H46.5477C46.0883 90.6522 45.7012 90.9876 45.6297 91.4432L44.6505 97.6869L44.3732 99.4568C44.3622 99.527 44.3664 99.5988 44.3856 99.6672C44.4047 99.7356 44.4385 99.799 44.4844 99.853C44.5303 99.9071 44.5873 99.9505 44.6515 99.9803C44.7156 100.01 44.7855 100.025 44.8562 100.026H48.2482C48.6499 100.026 48.9911 99.7321 49.0544 99.3338L49.0877 99.1605L49.7264 95.0856L49.7674 94.862C49.83 94.4623 50.1719 94.1689 50.5736 94.1689H51.0809C54.3673 94.1689 56.94 92.8273 57.6919 88.9452C58.0061 87.3235 57.8434 85.9694 57.0123 85.017C56.7488 84.7224 56.4342 84.4786 56.0838 84.2974Z" fill="#179BD7"/>
<path d="M55.1843 83.9369C54.9098 83.8571 54.6306 83.7948 54.3483 83.7504C53.7904 83.6642 53.2267 83.6228 52.6623 83.6267H47.553C47.3586 83.6266 47.1705 83.6964 47.0228 83.8235C46.8751 83.9506 46.7774 84.1267 46.7476 84.3198L45.6607 91.2413L45.6294 91.4433C45.6633 91.2229 45.7744 91.0221 45.9428 90.877C46.1112 90.7319 46.3257 90.6522 46.5474 90.6523H48.4599C52.2161 90.6523 55.1572 89.1186 56.0168 84.6818C56.0426 84.5504 56.0641 84.4226 56.0836 84.2975C55.8567 84.1779 55.6203 84.0776 55.3768 83.9977C55.3129 83.9764 55.2488 83.9562 55.1843 83.9369Z" fill="#222D65"/>
<path d="M46.7471 84.3199C46.7767 84.1266 46.8743 83.9505 47.0221 83.8234C47.1699 83.6964 47.3581 83.6268 47.5526 83.6274H52.6619C53.2672 83.6274 53.8322 83.6673 54.3478 83.7511C54.6967 83.8062 55.0409 83.8887 55.377 83.9978C55.6307 84.0823 55.8663 84.1822 56.0838 84.2975C56.3395 82.6576 56.0817 81.5411 55.1998 80.53C54.2276 79.417 52.4728 78.9404 50.2274 78.9404H43.7088C43.2501 78.9404 42.8589 79.2758 42.788 79.7321L40.0728 97.0358C40.0602 97.1162 40.065 97.1983 40.0869 97.2766C40.1088 97.3549 40.1474 97.4275 40.1999 97.4894C40.2524 97.5512 40.3176 97.601 40.391 97.6351C40.4645 97.6692 40.5444 97.6869 40.6253 97.687H44.6498L45.6602 91.2414L46.7471 84.3199Z" fill="#253B80"/>
</g>
<path d="M191.616 96H198.462V94.908H193.002C193.114 94.026 193.996 93.004 195.802 91.856C197.79 90.596 198.406 89.672 198.406 88.314C198.406 86.62 197.23 85.444 195.312 85.444C193.702 85.444 192.526 86.284 191.77 87.656L192.722 88.244C193.338 87.124 194.192 86.536 195.256 86.536C196.488 86.536 197.202 87.264 197.202 88.398C197.202 89.504 196.572 90.134 195.018 91.128C192.288 92.878 191.616 94.278 191.616 95.776V96ZM200.541 96H205.427V94.908H203.691V85.64H202.543C202.081 86.074 201.367 86.284 200.569 86.312V87.404C201.171 87.404 201.983 87.194 202.487 86.928V94.908H200.541V96ZM207.012 96H213.858V94.908H208.398C208.51 94.026 209.392 93.004 211.198 91.856C213.186 90.596 213.802 89.672 213.802 88.314C213.802 86.62 212.626 85.444 210.708 85.444C209.098 85.444 207.922 86.284 207.166 87.656L208.118 88.244C208.734 87.124 209.588 86.536 210.652 86.536C211.884 86.536 212.598 87.264 212.598 88.398C212.598 89.504 211.968 90.134 210.414 91.128C207.684 92.878 207.012 94.278 207.012 95.776V96ZM215.938 96H220.824V94.908H219.088V85.64H217.94C217.478 86.074 216.764 86.284 215.966 86.312V87.404C216.568 87.404 217.38 87.194 217.884 86.928V94.908H215.938V96ZM230.082 96.196C232.168 96.196 233.652 94.726 233.652 92.724C233.652 90.778 232.504 89.476 230.39 89.476C229.13 89.476 228.178 90.092 227.506 90.792C227.534 88.328 228.668 86.522 230.46 86.522C231.356 86.522 231.902 86.774 232.42 87.166L233.036 86.256C232.476 85.808 231.65 85.444 230.502 85.444C228.094 85.444 226.302 87.67 226.302 91.002C226.302 94.53 227.94 96.196 230.082 96.196ZM230.152 95.146C228.794 95.146 227.73 94.166 227.534 91.898C228.108 91.128 229.116 90.526 230.208 90.526C231.818 90.526 232.462 91.464 232.462 92.752C232.462 94.264 231.552 95.146 230.152 95.146ZM238.76 96.196C240.944 96.196 242.33 94.936 242.33 93.186C242.33 91.716 241.602 90.806 240.062 90.498C241.308 90.218 242.078 89.35 242.078 88.048C242.078 86.634 241.098 85.458 238.9 85.458C237.486 85.458 236.338 86.088 235.568 86.984L236.366 87.726C236.968 87.012 237.808 86.55 238.802 86.55C240.272 86.55 240.86 87.222 240.86 88.202C240.86 89.35 240.132 90.008 237.99 90.008H237.5V91.03H237.92C240.202 91.03 241.112 91.716 241.112 93.158C241.112 94.39 240.202 95.118 238.76 95.118C237.668 95.118 236.744 94.698 236.002 93.634L235.106 94.306C235.904 95.524 237.206 96.196 238.76 96.196ZM247.586 96.196C249.854 96.196 251.24 94.656 251.24 92.542C251.24 90.484 249.938 89.154 248.006 89.154C246.914 89.154 246.228 89.518 245.752 90.05L246.004 86.746H250.54L250.638 85.64H245.01L244.604 91.086L245.486 91.394C246.046 90.61 246.76 90.19 247.768 90.19C249.098 90.19 250.022 91.016 250.022 92.598C250.022 93.928 249.252 95.118 247.558 95.118C246.368 95.118 245.556 94.502 244.898 93.676L244.072 94.432C244.814 95.482 246.046 96.196 247.586 96.196ZM252.929 96H259.775V94.908H254.315C254.427 94.026 255.309 93.004 257.115 91.856C259.103 90.596 259.719 89.672 259.719 88.314C259.719 86.62 258.543 85.444 256.625 85.444C255.015 85.444 253.839 86.284 253.083 87.656L254.035 88.244C254.651 87.124 255.505 86.536 256.569 86.536C257.801 86.536 258.515 87.264 258.515 88.398C258.515 89.504 257.885 90.134 256.331 91.128C253.601 92.878 252.929 94.278 252.929 95.776V96ZM269.177 96.224C271.557 96.224 272.943 94.992 272.943 93.466C272.943 91.94 271.949 91.212 270.269 90.484C271.669 89.854 272.467 89.168 272.467 87.964C272.467 86.69 271.333 85.416 269.177 85.416C267.063 85.416 265.859 86.676 265.859 87.964C265.859 89.238 266.685 89.896 268.043 90.526C266.419 91.212 265.383 92.038 265.383 93.466C265.383 95.02 266.783 96.224 269.177 96.224ZM269.233 90.036C267.749 89.392 267.063 88.944 267.063 87.992C267.063 87.208 267.763 86.452 269.177 86.452C270.633 86.452 271.277 87.25 271.277 88.034C271.277 88.944 270.675 89.392 269.233 90.036ZM269.177 95.202C267.665 95.202 266.615 94.46 266.615 93.396C266.615 92.36 267.413 91.744 269.093 90.988C270.801 91.702 271.725 92.304 271.725 93.396C271.725 94.502 270.675 95.202 269.177 95.202ZM279.383 96H280.573V93.606H282.323V92.528H280.573V85.64H279.103L274.385 92.668V93.606H279.383V96ZM275.743 92.528L279.355 87.082H279.383V92.528H275.743ZM287.641 96.196C289.727 96.196 291.211 94.726 291.211 92.724C291.211 90.778 290.063 89.476 287.949 89.476C286.689 89.476 285.737 90.092 285.065 90.792C285.093 88.328 286.227 86.522 288.019 86.522C288.915 86.522 289.461 86.774 289.979 87.166L290.595 86.256C290.035 85.808 289.209 85.444 288.061 85.444C285.653 85.444 283.861 87.67 283.861 91.002C283.861 94.53 285.499 96.196 287.641 96.196ZM287.711 95.146C286.353 95.146 285.289 94.166 285.093 91.898C285.667 91.128 286.675 90.526 287.767 90.526C289.377 90.526 290.021 91.464 290.021 92.752C290.021 94.264 289.111 95.146 287.711 95.146ZM296.291 96.196C298.559 96.196 299.945 94.656 299.945 92.542C299.945 90.484 298.643 89.154 296.711 89.154C295.619 89.154 294.933 89.518 294.457 90.05L294.709 86.746H299.245L299.343 85.64H293.715L293.309 91.086L294.191 91.394C294.751 90.61 295.465 90.19 296.473 90.19C297.803 90.19 298.727 91.016 298.727 92.598C298.727 93.928 297.957 95.118 296.263 95.118C295.073 95.118 294.261 94.502 293.603 93.676L292.777 94.432C293.519 95.482 294.751 96.196 296.291 96.196ZM307.277 91.198L308.355 88.916L309.447 91.198L310.231 90.736L308.803 88.664L311.323 88.832V87.964L308.803 88.146L310.231 86.074L309.433 85.598L308.355 87.88L307.277 85.598L306.479 86.074L307.921 88.146L305.387 87.964V88.832L307.907 88.664L306.479 90.736L307.277 91.198ZM314.886 91.198L315.964 88.916L317.056 91.198L317.84 90.736L316.412 88.664L318.932 88.832V87.964L316.412 88.146L317.84 86.074L317.042 85.598L315.964 87.88L314.886 85.598L314.088 86.074L315.53 88.146L312.996 87.964V88.832L315.516 88.664L314.088 90.736L314.886 91.198ZM322.496 91.198L323.574 88.916L324.666 91.198L325.45 90.736L324.022 88.664L326.542 88.832V87.964L324.022 88.146L325.45 86.074L324.652 85.598L323.574 87.88L322.496 85.598L321.698 86.074L323.14 88.146L320.606 87.964V88.832L323.126 88.664L321.698 90.736L322.496 91.198ZM330.105 91.198L331.183 88.916L332.275 91.198L333.059 90.736L331.631 88.664L334.151 88.832V87.964L331.631 88.146L333.059 86.074L332.261 85.598L331.183 87.88L330.105 85.598L329.307 86.074L330.749 88.146L328.215 87.964V88.832L330.735 88.664L329.307 90.736L330.105 91.198Z" fill="#3B3B3B"/>
<path opacity="0.3" d="M33.274 55H34.506V50.618H36.704C38.874 50.618 40.526 49.792 40.526 47.58C40.526 45.522 39.028 44.64 36.788 44.64H33.274V55ZM34.506 49.526V45.76H36.76C38.44 45.76 39.308 46.292 39.308 47.622C39.308 49.022 38.426 49.526 36.774 49.526H34.506ZM43.8016 55.112C44.9076 55.112 45.8316 54.748 46.6576 53.978C46.6576 54.398 46.7276 54.692 46.8256 55H48.0576C47.9036 54.622 47.8476 54.076 47.8476 53.18V49.918C47.8476 48.378 47.1476 47.454 45.3836 47.454C43.9136 47.454 42.8076 48.042 41.9536 48.826L42.5836 49.582C43.3116 48.952 44.1376 48.462 45.2576 48.462C46.1676 48.462 46.6576 48.91 46.6576 49.834V50.17C42.9896 50.688 41.7156 51.752 41.7156 53.25C41.7156 54.44 42.5276 55.112 43.8016 55.112ZM44.1516 54.16C43.3816 54.16 42.9056 53.782 42.9056 53.068C42.9056 52.144 43.8436 51.458 46.6576 51.01V53.082C45.9716 53.754 45.1316 54.16 44.1516 54.16ZM50.6852 57.842C52.1272 57.842 52.7012 57.142 53.2052 55.84L56.3692 47.608H55.1512L52.9812 53.586H52.9532L50.7832 47.608H49.5092L52.3652 55.042L52.0852 55.77C51.7912 56.498 51.4272 56.82 50.6712 56.82C50.1532 56.82 49.7892 56.75 49.5792 56.694L49.2992 57.66C49.6212 57.758 50.0272 57.842 50.6852 57.842ZM58.23 55H59.434V49.68C60.218 48.952 60.918 48.49 61.73 48.49C62.696 48.49 63.018 48.952 63.018 49.932V55H64.222V49.68C64.992 48.952 65.678 48.49 66.504 48.49C67.47 48.49 67.792 48.952 67.792 49.932V55H68.996V49.666C68.996 48.336 68.366 47.454 66.854 47.454C65.748 47.454 64.838 48.056 64.124 48.756C63.872 47.986 63.34 47.454 62.094 47.454C60.988 47.454 60.134 48.028 59.434 48.728V47.608H58.23V55ZM74.4939 55.154C75.8799 55.154 76.8179 54.566 77.5039 53.586L76.8039 52.97C76.2439 53.74 75.6419 54.174 74.5779 54.174C73.3599 54.174 72.3939 53.278 72.3519 51.612H77.5739V51.36C77.5739 48.686 76.2439 47.454 74.4939 47.454C72.9399 47.454 71.1479 48.616 71.1479 51.304C71.1479 53.88 72.7439 55.154 74.4939 55.154ZM72.3799 50.674C72.5479 49.148 73.4859 48.462 74.4799 48.462C75.6979 48.462 76.3279 49.358 76.4259 50.674H72.3799ZM79.7925 55H81.0105V49.68C81.7805 48.952 82.5225 48.49 83.4045 48.49C84.3425 48.49 84.7625 48.952 84.7625 49.932V55H85.9665V49.666C85.9665 48.266 85.1965 47.454 83.7825 47.454C82.5785 47.454 81.6545 48.084 81.0105 48.714V47.608H79.7925V55ZM91.113 55.098C91.491 55.098 91.953 55.056 92.163 55.014V54.02C91.967 54.076 91.673 54.118 91.407 54.118C90.511 54.118 90.259 53.726 90.259 52.942V48.602H92.177V47.608H90.259V44.976H89.055V47.608H87.767V48.602H89.055V53.208C89.055 54.496 89.559 55.098 91.113 55.098ZM98.2916 55H99.4256V46.572H99.4536C99.6776 47.398 99.8456 47.832 100.098 48.518L102.576 55H103.682L106.16 48.518C106.398 47.832 106.65 47.16 106.79 46.614H106.818V55H108.036V44.64H106.398L103.192 53.446H103.164L99.9016 44.64H98.2916V55ZM113.799 55.154C115.185 55.154 116.123 54.566 116.809 53.586L116.109 52.97C115.549 53.74 114.947 54.174 113.883 54.174C112.665 54.174 111.699 53.278 111.657 51.612H116.879V51.36C116.879 48.686 115.549 47.454 113.799 47.454C112.245 47.454 110.453 48.616 110.453 51.304C110.453 53.88 112.049 55.154 113.799 55.154ZM111.685 50.674C111.853 49.148 112.791 48.462 113.785 48.462C115.003 48.462 115.633 49.358 115.731 50.674H111.685ZM121.687 55.098C122.065 55.098 122.527 55.056 122.737 55.014V54.02C122.541 54.076 122.247 54.118 121.981 54.118C121.085 54.118 120.833 53.726 120.833 52.942V48.602H122.751V47.608H120.833V44.976H119.629V47.608H118.341V48.602H119.629V53.208C119.629 54.496 120.133 55.098 121.687 55.098ZM124.875 55H126.093V49.68C126.863 48.952 127.605 48.49 128.487 48.49C129.425 48.49 129.845 48.952 129.845 49.932V55H131.049V49.666C131.049 48.266 130.279 47.454 128.865 47.454C127.661 47.454 126.737 48.084 126.093 48.714V44.64H124.875V55ZM136.629 55.154C138.435 55.154 140.059 53.838 140.059 51.304C140.059 48.756 138.435 47.454 136.629 47.454C134.809 47.454 133.185 48.756 133.185 51.304C133.185 53.838 134.823 55.154 136.629 55.154ZM136.629 54.132C135.131 54.132 134.403 52.872 134.403 51.304C134.403 49.638 135.215 48.49 136.629 48.49C138.099 48.49 138.841 49.764 138.841 51.304C138.841 52.998 138.029 54.132 136.629 54.132ZM144.871 55.112C145.977 55.112 146.719 54.594 147.307 53.95C147.307 54.328 147.391 54.762 147.475 55H148.735C148.567 54.622 148.511 54.076 148.511 53.18V44.64H147.307V48.546C146.747 47.902 145.907 47.454 145.011 47.454C143.205 47.454 141.861 48.742 141.861 51.318C141.861 53.894 143.177 55.112 144.871 55.112ZM145.165 54.118C143.975 54.118 143.065 53.222 143.065 51.332C143.065 49.386 143.891 48.476 145.179 48.476C145.963 48.476 146.663 48.868 147.307 49.596V52.984C146.691 53.656 146.019 54.118 145.165 54.118Z" fill="#3B3B3B"/>
<path d="M309.274 55H315.924V53.88H310.506V50.114H314.314V49.008H310.506V45.774H315.63V44.64H309.274V55ZM320.344 55.112C321.45 55.112 322.192 54.594 322.78 53.95C322.78 54.328 322.864 54.762 322.948 55H324.208C324.04 54.622 323.984 54.076 323.984 53.18V44.64H322.78V48.546C322.22 47.902 321.38 47.454 320.484 47.454C318.678 47.454 317.334 48.742 317.334 51.318C317.334 53.894 318.65 55.112 320.344 55.112ZM320.638 54.118C319.448 54.118 318.538 53.222 318.538 51.332C318.538 49.386 319.364 48.476 320.652 48.476C321.436 48.476 322.136 48.868 322.78 49.596V52.984C322.164 53.656 321.492 54.118 320.638 54.118ZM326.677 46.026H327.937V44.85H326.677V46.026ZM326.705 55H327.909V47.608H326.705V55ZM333.211 55.098C333.589 55.098 334.051 55.056 334.261 55.014V54.02C334.065 54.076 333.771 54.118 333.505 54.118C332.609 54.118 332.357 53.726 332.357 52.942V48.602H334.275V47.608H332.357V44.976H331.153V47.608H329.865V48.602H331.153V53.208C331.153 54.496 331.657 55.098 333.211 55.098Z" fill="url(#paint0_linear_196_5)"/>
<defs>
<filter id="filter0_d_196_5" x="-18" y="0" width="435" height="200" filterUnits="userSpaceOnUse" color-interpolation-filters="sRGB">
<feFlood flood-opacity="0" result="BackgroundImageFix"/>
<feColorMatrix in="SourceAlpha" type="matrix" values="0 0 0 0 0 0 0 0 0 0 0 0 0 0 0 0 0 0 127 0" result="hardAlpha"/>
<feOffset dx="12" dy="26"/>
<feGaussianBlur stdDeviation="25"/>
<feColorMatrix type="matrix" values="0 0 0 0 0.352941 0 0 0 0 0.423529 0 0 0 0 0.917647 0 0 0 0.07 0"/>
<feBlend mode="normal" in2="BackgroundImageFix" result="effect1_dropShadow_196_5"/>
<feBlend mode="normal" in="SourceGraphic" in2="effect1_dropShadow_196_5" result="shape"/>
</filter>
<linearGradient id="paint0_linear_196_5" x1="308" y1="43.1404" x2="337.301" y2="51.8956" gradientUnits="userSpaceOnUse">
<stop stop-color="#53E88B"/>
<stop offset="1" stop-color="#15BE77"/>
</linearGradient>
<clipPath id="clip0_196_5">
<rect width="86" height="23" fill="white" transform="translate(40 78)"/>
</clipPath>
</defs>
</svg>
