<svg width="78" height="78" viewBox="0 0 78 78" fill="none" xmlns="http://www.w3.org/2000/svg">
<circle opacity="0.1" cx="39" cy="39" r="39" fill="url(#paint0_linear_186_1679)"/>
<path d="M40.3571 33.4506C40.3068 32.9642 40.2543 32.4596 40.1254 31.9561C39.7741 30.7515 38.801 30 37.7576 30C37.1757 29.9979 36.4395 30.3564 36.0222 30.7193L32.5629 33.617H30.7519C29.4192 33.617 28.3475 34.6444 28.1451 36.127C27.9732 37.5506 27.9312 40.2379 28.1451 41.8042C28.3307 43.3706 29.3542 44.383 30.7519 44.383H32.5629L36.0893 47.3236C36.4511 47.6382 37.0897 47.9989 37.6769 47.9989C37.7146 48 37.7482 48 37.7817 48C38.845 48 39.7814 47.2206 40.1327 46.0192C40.2659 45.5082 40.312 45.0293 40.3571 44.5666L40.4043 44.1082C40.5846 42.6213 40.5846 35.3691 40.4043 33.8929L40.3571 33.4506Z" fill="url(#paint1_linear_186_1679)"/>
<path opacity="0.4" d="M44.4066 33.4946C44.1182 33.0694 43.5468 32.9631 43.1284 33.2584C42.7142 33.5558 42.6114 34.1419 42.8998 34.566C43.7019 35.748 44.1434 37.3219 44.1434 39C44.1434 40.6769 43.7019 42.2519 42.8998 43.4339C42.6114 43.858 42.7142 44.4442 43.1294 44.7416C43.2846 44.8511 43.466 44.9091 43.6527 44.9091C43.9536 44.9091 44.2346 44.7577 44.4066 44.5054C45.4195 43.0131 45.9785 41.0581 45.9785 39C45.9785 36.9419 45.4195 34.9869 44.4066 33.4946Z" fill="url(#paint2_linear_186_1679)"/>
<path opacity="0.4" d="M47.5672 30.4573C47.2809 30.0332 46.7073 29.9248 46.29 30.2211C45.8758 30.5185 45.773 31.1046 46.0603 31.5287C47.4172 33.5278 48.1649 36.1817 48.1649 38.9999C48.1649 41.8192 47.4172 44.4731 46.0603 46.4722C45.773 46.8973 45.8758 47.4824 46.291 47.7798C46.4462 47.8893 46.6266 47.9473 46.8132 47.9473C47.1142 47.9473 47.3963 47.7959 47.5672 47.5436C49.1359 45.2343 49.9999 42.2003 49.9999 38.9999C49.9999 35.8016 49.1359 32.7666 47.5672 30.4573Z" fill="url(#paint3_linear_186_1679)"/>
<defs>
<linearGradient id="paint0_linear_186_1679" x1="-1.10608e-07" y1="-4.78947" x2="90.0436" y2="9.16146" gradientUnits="userSpaceOnUse">
<stop stop-color="#53E88B"/>
<stop offset="1" stop-color="#15BE77"/>
</linearGradient>
<linearGradient id="paint1_linear_186_1679" x1="28" y1="28.8947" x2="42.6525" y2="30.4762" gradientUnits="userSpaceOnUse">
<stop stop-color="#53E88B"/>
<stop offset="1" stop-color="#15BE77"/>
</linearGradient>
<linearGradient id="paint2_linear_186_1679" x1="42.7361" y1="32.3655" x2="46.562" y2="32.5282" gradientUnits="userSpaceOnUse">
<stop stop-color="#53E88B"/>
<stop offset="1" stop-color="#15BE77"/>
</linearGradient>
<linearGradient id="paint3_linear_186_1679" x1="45.8975" y1="28.955" x2="50.7409" y2="29.127" gradientUnits="userSpaceOnUse">
<stop stop-color="#53E88B"/>
<stop offset="1" stop-color="#15BE77"/>
</linearGradient>
</defs>
</svg>
