<svg width="254" height="34" viewBox="0 0 254 34" fill="none" xmlns="http://www.w3.org/2000/svg">
<path d="M13.2841 5.79232C14.3635 3.49059 17.6372 3.49059 18.7165 5.79232L20.2137 8.98516C20.6382 9.8903 21.4856 10.5245 22.4737 10.6766L26.0718 11.2302C28.4835 11.6012 29.467 14.5431 27.7632 16.29L24.9737 19.1499C24.3091 19.8313 24.0073 20.7876 24.1604 21.7271L24.7913 25.5992C25.1941 28.0715 22.5689 29.9195 20.3774 28.7063L17.4533 27.0876C16.5493 26.5872 15.4514 26.5872 14.5474 27.0876L11.6233 28.7063C9.43177 29.9195 6.80654 28.0715 7.20936 25.5992L7.84028 21.7271C7.99334 20.7876 7.69153 19.8313 7.02694 19.1499L4.23745 16.29C2.53367 14.5431 3.51711 11.6012 5.92886 11.2302L9.52694 10.6766C10.515 10.5245 11.3625 9.8903 11.7869 8.98516L13.2841 5.79232Z" fill="#FEAD1D"/>
<path d="M68.7968 5.61687C69.887 3.35151 73.113 3.35151 74.2032 5.61686L75.8328 9.00283C76.2635 9.89771 77.1091 10.5215 78.0913 10.6687L81.8634 11.2342C84.2995 11.5994 85.2816 14.5825 83.5389 16.3235L80.7186 19.1408C80.0324 19.8263 79.72 20.8013 79.88 21.758L80.5317 25.6555C80.9433 28.1168 78.345 29.9753 76.1486 28.7907L72.9242 27.0515C72.0353 26.572 70.9647 26.572 70.0758 27.0515L66.8514 28.7907C64.655 29.9753 62.0567 28.1168 62.4683 25.6555L63.12 21.758C63.28 20.8013 62.9676 19.8263 62.2814 19.1408L59.4611 16.3235C57.7184 14.5825 58.7005 11.5994 61.1366 11.2342L64.9087 10.6687C65.8909 10.5215 66.7365 9.89771 67.1672 9.00283L68.7968 5.61687Z" fill="#FEAD1D"/>
<path opacity="0.3" d="M179.797 5.61687C180.887 3.35151 184.113 3.35151 185.203 5.61686L186.833 9.00283C187.263 9.89771 188.109 10.5215 189.091 10.6687L192.863 11.2342C195.3 11.5994 196.282 14.5825 194.539 16.3235L191.719 19.1408C191.032 19.8263 190.72 20.8013 190.88 21.758L191.532 25.6555C191.943 28.1168 189.345 29.9753 187.149 28.7907L183.924 27.0515C183.035 26.572 181.965 26.572 181.076 27.0515L177.851 28.7907C175.655 29.9753 173.057 28.1168 173.468 25.6555L174.12 21.758C174.28 20.8013 173.968 19.8263 173.281 19.1408L170.461 16.3235C168.718 14.5825 169.7 11.5994 172.137 11.2342L175.909 10.6687C176.891 10.5215 177.737 9.89771 178.167 9.00283L179.797 5.61687Z" fill="#FEAD1D"/>
<path opacity="0.3" d="M235.284 5.79232C236.363 3.49059 239.637 3.49059 240.717 5.79232L242.214 8.98516C242.638 9.8903 243.486 10.5245 244.474 10.6766L248.072 11.2302C250.484 11.6012 251.467 14.5431 249.763 16.29L246.974 19.1499C246.309 19.8313 246.007 20.7876 246.16 21.7271L246.791 25.5992C247.194 28.0715 244.569 29.9195 242.377 28.7063L239.453 27.0876C238.549 26.5872 237.451 26.5872 236.547 27.0876L233.623 28.7063C231.432 29.9195 228.807 28.0715 229.209 25.5992L229.84 21.7271C229.993 20.7876 229.692 19.8313 229.027 19.1499L226.237 16.29C224.534 14.5431 225.517 11.6012 227.929 11.2302L231.527 10.6766C232.515 10.5245 233.362 9.8903 233.787 8.98516L235.284 5.79232Z" fill="#FEAD1D"/>
<path d="M124.284 5.79232C125.363 3.49059 128.637 3.49059 129.717 5.79232L131.214 8.98516C131.638 9.8903 132.486 10.5245 133.474 10.6766L137.072 11.2302C139.484 11.6012 140.467 14.5431 138.763 16.29L135.974 19.1499C135.309 19.8313 135.007 20.7876 135.16 21.7271L135.791 25.5992C136.194 28.0715 133.569 29.9195 131.377 28.7063L128.453 27.0876C127.549 26.5872 126.451 26.5872 125.547 27.0876L122.623 28.7063C120.432 29.9195 117.807 28.0715 118.209 25.5992L118.84 21.7271C118.993 20.7876 118.692 19.8313 118.027 19.1499L115.237 16.29C113.534 14.5431 114.517 11.6012 116.929 11.2302L120.527 10.6766C121.515 10.5245 122.362 9.8903 122.787 8.98516L124.284 5.79232Z" fill="#FEAD1D"/>
<circle cx="139.5" cy="2.5" r="1.5" fill="#FEAD1D"/>
<circle opacity="0.5" cx="123" cy="32.6666" r="1" fill="#FEAD1D"/>
<circle cx="113" cy="22.6666" r="2" fill="#FEAD1D"/>
<circle opacity="0.6" cx="138.5" cy="27.1666" r="0.5" fill="#FEAD1D"/>
<circle cx="119.5" cy="7.5" r="0.5" fill="#FEAD1D"/>
</svg>
