<svg width="375" height="205" viewBox="0 0 375 205" fill="none" xmlns="http://www.w3.org/2000/svg">
<g filter="url(#filter0_d_184_2431)">
<rect x="14" y="50" width="347" height="105" rx="22" fill="white"/>
</g>
<path d="M111.005 88H112.895V83.215L116.69 76.9H114.74L111.98 81.625L109.205 76.9H107.225L111.005 83.215V88ZM119.292 88.165C121.227 88.165 123.177 86.935 123.177 84.025C123.177 81.085 121.227 79.885 119.292 79.885C117.342 79.885 115.407 81.085 115.407 84.025C115.407 86.935 117.357 88.165 119.292 88.165ZM119.292 86.62C117.882 86.62 117.267 85.54 117.267 84.025C117.267 82.42 117.957 81.46 119.292 81.46C120.687 81.46 121.317 82.54 121.317 84.025C121.317 85.66 120.627 86.62 119.292 86.62ZM126.998 88.15C128.438 88.15 129.398 87.46 129.908 86.92V88H131.768V80.035H129.908V85.57C129.233 86.185 128.558 86.605 127.748 86.605C126.938 86.605 126.563 86.2 126.563 85.315V80.035H124.703V85.75C124.703 87.325 125.603 88.15 126.998 88.15ZM133.831 88H135.676V82.96C136.201 82.105 136.951 81.55 138.136 81.55C138.241 81.55 138.541 81.565 138.631 81.58L138.691 79.885H138.571C137.056 79.885 136.201 80.545 135.706 81.34H135.676V80.035H133.831V88ZM147.212 88.165C149.147 88.165 151.097 86.935 151.097 84.025C151.097 81.085 149.147 79.885 147.212 79.885C145.262 79.885 143.327 81.085 143.327 84.025C143.327 86.935 145.277 88.165 147.212 88.165ZM147.212 86.62C145.802 86.62 145.187 85.54 145.187 84.025C145.187 82.42 145.877 81.46 147.212 81.46C148.607 81.46 149.237 82.54 149.237 84.025C149.237 85.66 148.547 86.62 147.212 86.62ZM152.713 88H154.558V82.96C155.083 82.105 155.833 81.55 157.018 81.55C157.123 81.55 157.423 81.565 157.513 81.58L157.573 79.885H157.453C155.938 79.885 155.083 80.545 154.588 81.34H154.558V80.035H152.713V88ZM161.229 88.12C162.414 88.12 163.179 87.595 163.764 86.92C163.764 87.325 163.839 87.775 163.944 88H165.849C165.669 87.595 165.609 87.01 165.609 86.05V76.9H163.764V80.89C163.179 80.23 162.339 79.885 161.484 79.885C159.444 79.885 158.079 81.28 158.079 84.04C158.079 86.8 159.414 88.12 161.229 88.12ZM161.829 86.605C160.644 86.605 159.924 85.765 159.924 84.085C159.924 82.315 160.494 81.415 161.889 81.415C162.549 81.415 163.269 81.76 163.764 82.405V85.6C163.329 86.125 162.594 86.605 161.829 86.605ZM171.073 88.165C172.498 88.165 173.593 87.64 174.418 86.725L173.443 85.765C172.843 86.35 172.243 86.695 171.208 86.695C170.038 86.695 169.153 86.065 169.078 84.625H174.523V84.19C174.523 80.95 172.813 79.885 171.028 79.885C169.378 79.885 167.233 80.995 167.233 84.025C167.233 86.95 169.078 88.165 171.073 88.165ZM169.108 83.245C169.288 81.895 170.113 81.385 171.013 81.385C172.123 81.385 172.723 82.03 172.828 83.245H169.108ZM176.15 88H177.995V82.96C178.52 82.105 179.27 81.55 180.455 81.55C180.56 81.55 180.86 81.565 180.95 81.58L181.01 79.885H180.89C179.375 79.885 178.52 80.545 178.025 81.34H177.995V80.035H176.15V88ZM186.097 88H187.957V82.495C188.632 81.88 189.307 81.46 190.117 81.46C190.927 81.46 191.302 81.865 191.302 82.75V88H193.162V82.285C193.162 80.71 192.262 79.885 190.867 79.885C189.427 79.885 188.467 80.575 187.957 81.115V76.9H186.097V88ZM196.875 88.12C198.06 88.12 199.005 87.805 199.815 86.98C199.815 87.43 199.89 87.67 199.995 88H201.855C201.69 87.595 201.63 87.01 201.63 86.05V82.765C201.63 80.905 200.895 79.885 198.765 79.885C197.115 79.885 195.78 80.545 194.925 81.325L195.825 82.48C196.5 81.94 197.4 81.4 198.51 81.4C199.395 81.4 199.815 81.745 199.815 82.54V82.78C196.095 83.2 194.625 84.355 194.625 86.08C194.625 87.4 195.585 88.12 196.875 88.12ZM197.55 86.695C196.875 86.695 196.44 86.365 196.44 85.735C196.44 84.865 197.61 84.325 199.815 84.025V85.78C199.23 86.335 198.495 86.695 197.55 86.695ZM206.526 88.165C208.341 88.165 209.856 87.385 209.856 85.705C209.856 83.845 208.191 83.5 206.826 83.2C205.881 82.99 205.086 82.795 205.086 82.15C205.086 81.7 205.416 81.34 206.436 81.34C207.156 81.34 208.101 81.73 208.686 82.21L209.571 81.01C208.746 80.32 207.816 79.885 206.301 79.885C204.546 79.885 203.346 80.83 203.346 82.225C203.346 84.07 204.981 84.43 206.346 84.745C207.306 84.97 208.116 85.165 208.116 85.81C208.116 86.47 207.516 86.725 206.526 86.725C205.506 86.725 204.621 86.29 204.021 85.78L203.016 86.905C203.736 87.64 205.056 88.165 206.526 88.165ZM219.357 88.12C221.397 88.12 222.762 86.77 222.762 84.01C222.762 81.25 221.427 79.885 219.612 79.885C218.427 79.885 217.602 80.455 217.077 81.085V76.9H215.232V88H217.077V87.115C217.662 87.775 218.502 88.12 219.357 88.12ZM218.952 86.65C218.292 86.65 217.572 86.305 217.077 85.66V82.465C217.512 81.94 218.247 81.46 219.012 81.46C220.197 81.46 220.917 82.345 220.917 84.025C220.917 85.795 220.347 86.65 218.952 86.65ZM227.792 88.165C229.217 88.165 230.312 87.64 231.137 86.725L230.162 85.765C229.562 86.35 228.962 86.695 227.927 86.695C226.757 86.695 225.872 86.065 225.797 84.625H231.242V84.19C231.242 80.95 229.532 79.885 227.747 79.885C226.097 79.885 223.952 80.995 223.952 84.025C223.952 86.95 225.797 88.165 227.792 88.165ZM225.827 83.245C226.007 81.895 226.832 81.385 227.732 81.385C228.842 81.385 229.442 82.03 229.547 83.245H225.827ZM236.259 88.165C237.684 88.165 238.779 87.64 239.604 86.725L238.629 85.765C238.029 86.35 237.429 86.695 236.394 86.695C235.224 86.695 234.339 86.065 234.264 84.625H239.709V84.19C239.709 80.95 237.999 79.885 236.214 79.885C234.564 79.885 232.419 80.995 232.419 84.025C232.419 86.95 234.264 88.165 236.259 88.165ZM234.294 83.245C234.474 81.895 235.299 81.385 236.199 81.385C237.309 81.385 237.909 82.03 238.014 83.245H234.294ZM241.336 88H243.196V82.495C243.871 81.88 244.546 81.46 245.356 81.46C246.166 81.46 246.541 81.865 246.541 82.75V88H248.401V82.285C248.401 80.71 247.501 79.885 246.106 79.885C244.666 79.885 243.706 80.575 243.196 81.115V80.035H241.336V88ZM257.229 88.105C257.694 88.105 258.384 88.045 258.579 88V86.545C258.399 86.605 258.054 86.65 257.784 86.65C256.869 86.65 256.614 86.305 256.614 85.45V81.505H258.669V80.035H256.614V77.26H254.769V80.035H253.389V81.505H254.769V85.915C254.769 87.355 255.204 88.105 257.229 88.105ZM261.928 88.12C263.113 88.12 264.058 87.805 264.868 86.98C264.868 87.43 264.943 87.67 265.048 88H266.908C266.743 87.595 266.683 87.01 266.683 86.05V82.765C266.683 80.905 265.948 79.885 263.818 79.885C262.168 79.885 260.833 80.545 259.978 81.325L260.878 82.48C261.553 81.94 262.453 81.4 263.563 81.4C264.448 81.4 264.868 81.745 264.868 82.54V82.78C261.148 83.2 259.678 84.355 259.678 86.08C259.678 87.4 260.638 88.12 261.928 88.12ZM262.603 86.695C261.928 86.695 261.493 86.365 261.493 85.735C261.493 84.865 262.663 84.325 264.868 84.025V85.78C264.283 86.335 263.548 86.695 262.603 86.695ZM268.67 88H270.515V85.705L271.79 84.31L273.845 88H275.78L272.96 82.945L275.555 80.035H273.53L270.515 83.515V76.9H268.67V88ZM280.131 88.165C281.556 88.165 282.651 87.64 283.476 86.725L282.501 85.765C281.901 86.35 281.301 86.695 280.266 86.695C279.096 86.695 278.211 86.065 278.136 84.625H283.581V84.19C283.581 80.95 281.871 79.885 280.086 79.885C278.436 79.885 276.291 80.995 276.291 84.025C276.291 86.95 278.136 88.165 280.131 88.165ZM278.166 83.245C278.346 81.895 279.171 81.385 280.071 81.385C281.181 81.385 281.781 82.03 281.886 83.245H278.166ZM285.208 88H287.068V82.495C287.743 81.88 288.418 81.46 289.228 81.46C290.038 81.46 290.413 81.865 290.413 82.75V88H292.273V82.285C292.273 80.71 291.373 79.885 289.978 79.885C288.538 79.885 287.578 80.575 287.068 81.115V80.035H285.208V88ZM302.136 88.12C304.176 88.12 305.541 86.77 305.541 84.01C305.541 81.25 304.206 79.885 302.391 79.885C301.206 79.885 300.381 80.455 299.856 81.085V76.9H298.011V88H299.856V87.115C300.441 87.775 301.281 88.12 302.136 88.12ZM301.731 86.65C301.071 86.65 300.351 86.305 299.856 85.66V82.465C300.291 81.94 301.026 81.46 301.791 81.46C302.976 81.46 303.696 82.345 303.696 84.025C303.696 85.795 303.126 86.65 301.731 86.65ZM307.684 91.09C309.259 91.09 309.949 90.265 310.474 88.87L313.864 80.035H312.034L309.994 85.84H309.964L307.909 80.035H305.989L309.049 88.045L308.824 88.63C308.569 89.275 308.224 89.53 307.564 89.53C306.919 89.53 306.439 89.425 306.214 89.365L305.794 90.85C306.184 90.955 306.739 91.09 307.684 91.09ZM111.125 108.105C111.59 108.105 112.28 108.045 112.475 108V106.545C112.295 106.605 111.95 106.65 111.68 106.65C110.765 106.65 110.51 106.305 110.51 105.45V101.505H112.565V100.035H110.51V97.26H108.665V100.035H107.285V101.505H108.665V105.915C108.665 107.355 109.1 108.105 111.125 108.105ZM114.085 108H115.945V102.495C116.62 101.88 117.295 101.46 118.105 101.46C118.915 101.46 119.29 101.865 119.29 102.75V108H121.15V102.285C121.15 100.71 120.25 99.885 118.855 99.885C117.415 99.885 116.455 100.575 115.945 101.115V96.9H114.085V108ZM126.513 108.165C127.938 108.165 129.033 107.64 129.858 106.725L128.883 105.765C128.283 106.35 127.683 106.695 126.648 106.695C125.478 106.695 124.593 106.065 124.518 104.625H129.963V104.19C129.963 100.95 128.253 99.885 126.468 99.885C124.818 99.885 122.673 100.995 122.673 104.025C122.673 106.95 124.518 108.165 126.513 108.165ZM124.548 103.245C124.728 101.895 125.553 101.385 126.453 101.385C127.563 101.385 128.163 102.03 128.268 103.245H124.548ZM138.069 108.12C139.254 108.12 140.019 107.595 140.604 106.92C140.604 107.325 140.679 107.775 140.784 108H142.689C142.509 107.595 142.449 107.01 142.449 106.05V96.9H140.604V100.89C140.019 100.23 139.179 99.885 138.324 99.885C136.284 99.885 134.919 101.28 134.919 104.04C134.919 106.8 136.254 108.12 138.069 108.12ZM138.669 106.605C137.484 106.605 136.764 105.765 136.764 104.085C136.764 102.315 137.334 101.415 138.729 101.415C139.389 101.415 140.109 101.76 140.604 102.405V105.6C140.169 106.125 139.434 106.605 138.669 106.605ZM144.524 108H146.369V102.96C146.894 102.105 147.644 101.55 148.829 101.55C148.934 101.55 149.234 101.565 149.324 101.58L149.384 99.885H149.264C147.749 99.885 146.894 100.545 146.399 101.34H146.369V100.035H144.524V108ZM150.766 98.655H152.656V97.05H150.766V98.655ZM150.781 108H152.641V100.035H150.781V108ZM156.773 108.015H158.648L161.528 100.035H159.743L157.808 105.915H157.778L155.828 100.035H153.893L156.773 108.015ZM165.712 108.165C167.137 108.165 168.232 107.64 169.057 106.725L168.082 105.765C167.482 106.35 166.882 106.695 165.847 106.695C164.677 106.695 163.792 106.065 163.717 104.625H169.162V104.19C169.162 100.95 167.452 99.885 165.667 99.885C164.017 99.885 161.872 100.995 161.872 104.025C161.872 106.95 163.717 108.165 165.712 108.165ZM163.747 103.245C163.927 101.895 164.752 101.385 165.652 101.385C166.762 101.385 167.362 102.03 167.467 103.245H163.747ZM170.789 108H172.634V102.96C173.159 102.105 173.909 101.55 175.094 101.55C175.199 101.55 175.499 101.565 175.589 101.58L175.649 99.885H175.529C174.014 99.885 173.159 100.545 172.664 101.34H172.634V100.035H170.789V108Z" fill="#09051C"/>
<path opacity="0.3" d="M108.274 129H109.492V124.534H111.83L114.308 129H115.652L113.104 124.38C114.574 124.072 115.512 123.204 115.512 121.538C115.512 119.634 114.182 118.64 111.83 118.64H108.274V129ZM109.492 123.442V119.76H111.746C113.398 119.76 114.294 120.222 114.294 121.58C114.294 122.994 113.384 123.442 111.76 123.442H109.492ZM120.541 129.154C121.927 129.154 122.865 128.566 123.551 127.586L122.851 126.97C122.291 127.74 121.689 128.174 120.625 128.174C119.407 128.174 118.441 127.278 118.399 125.612H123.621V125.36C123.621 122.686 122.291 121.454 120.541 121.454C118.987 121.454 117.195 122.616 117.195 125.304C117.195 127.88 118.791 129.154 120.541 129.154ZM118.427 124.674C118.595 123.148 119.533 122.462 120.527 122.462C121.745 122.462 122.375 123.358 122.473 124.674H118.427ZM128.709 129.154C130.305 129.154 131.159 128.286 131.733 127.054L130.739 126.662C130.263 127.74 129.689 128.146 128.751 128.146C127.505 128.146 126.637 127.124 126.637 125.304C126.637 123.218 127.715 122.476 128.779 122.476C129.745 122.476 130.319 122.994 130.683 123.946L131.705 123.526C131.257 122.434 130.473 121.454 128.807 121.454C127.155 121.454 125.419 122.602 125.419 125.304C125.419 127.838 127.001 129.154 128.709 129.154ZM136.648 129.154C138.034 129.154 138.972 128.566 139.658 127.586L138.958 126.97C138.398 127.74 137.796 128.174 136.732 128.174C135.514 128.174 134.548 127.278 134.506 125.612H139.728V125.36C139.728 122.686 138.398 121.454 136.648 121.454C135.094 121.454 133.302 122.616 133.302 125.304C133.302 127.88 134.898 129.154 136.648 129.154ZM134.534 124.674C134.702 123.148 135.64 122.462 136.634 122.462C137.852 122.462 138.482 123.358 138.58 124.674H134.534ZM141.947 129H143.165V123.68C143.935 122.952 144.677 122.49 145.559 122.49C146.497 122.49 146.917 122.952 146.917 123.932V129H148.121V123.666C148.121 122.266 147.351 121.454 145.937 121.454C144.733 121.454 143.809 122.084 143.165 122.714V121.608H141.947V129ZM153.267 129.098C153.645 129.098 154.107 129.056 154.317 129.014V128.02C154.121 128.076 153.827 128.118 153.561 128.118C152.665 128.118 152.413 127.726 152.413 126.942V122.602H154.331V121.608H152.413V118.976H151.209V121.608H149.921V122.602H151.209V127.208C151.209 128.496 151.713 129.098 153.267 129.098ZM156.539 129H157.743V118.64H156.539V129ZM160.875 131.842C162.317 131.842 162.891 131.142 163.395 129.84L166.559 121.608H165.341L163.171 127.586H163.143L160.973 121.608H159.699L162.555 129.042L162.275 129.77C161.981 130.498 161.617 130.82 160.861 130.82C160.343 130.82 159.979 130.75 159.769 130.694L159.489 131.66C159.811 131.758 160.217 131.842 160.875 131.842Z" fill="#3B3B3B"/>
<g clip-path="url(#clip0_184_2431)">
<path d="M59 123C70.0457 123 79 114.046 79 103C79 91.9543 70.0457 83 59 83C47.9543 83 39 91.9543 39 103C39 114.046 47.9543 123 59 123Z" fill="#32BA7C"/>
<path d="M53.8898 112.022L64.1737 122.306C72.691 120.035 79.0002 112.274 79.0002 103C79.0002 102.811 79.0002 102.621 79.0002 102.432L70.9245 94.9874L53.8898 112.022Z" fill="#0AA06E"/>
<path d="M59.5046 107.479C60.3879 108.363 60.3879 109.877 59.5046 110.76L57.675 112.59C56.7917 113.473 55.2775 113.473 54.3942 112.59L46.3816 104.514C45.4983 103.631 45.4983 102.117 46.3816 101.233L48.2112 99.4037C49.0945 98.5204 50.6087 98.5204 51.492 99.4037L59.5046 107.479Z" fill="white"/>
<path d="M66.5077 93.5362C67.391 92.653 68.9051 92.653 69.7884 93.5362L71.6181 95.3659C72.5014 96.2492 72.5014 97.7634 71.6181 98.6466L57.738 112.464C56.8547 113.347 55.3405 113.347 54.4572 112.464L52.6275 110.634C51.7443 109.751 51.7443 108.237 52.6275 107.353L66.5077 93.5362Z" fill="white"/>
</g>
<circle cx="84" cy="75" r="2" fill="#32BA7C"/>
<circle cx="33" cy="71" r="1" fill="#32BA7C"/>
<circle cx="83" cy="127" r="1" fill="#32BA7C"/>
<circle cx="33.5" cy="122.5" r="4.5" fill="#32BA7C"/>
<defs>
<filter id="filter0_d_184_2431" x="-36" y="0" width="447" height="205" filterUnits="userSpaceOnUse" color-interpolation-filters="sRGB">
<feFlood flood-opacity="0" result="BackgroundImageFix"/>
<feColorMatrix in="SourceAlpha" type="matrix" values="0 0 0 0 0 0 0 0 0 0 0 0 0 0 0 0 0 0 127 0" result="hardAlpha"/>
<feOffset/>
<feGaussianBlur stdDeviation="25"/>
<feColorMatrix type="matrix" values="0 0 0 0 0.352941 0 0 0 0 0.423529 0 0 0 0 0.917647 0 0 0 0.07 0"/>
<feBlend mode="normal" in2="BackgroundImageFix" result="effect1_dropShadow_184_2431"/>
<feBlend mode="normal" in="SourceGraphic" in2="effect1_dropShadow_184_2431" result="shape"/>
</filter>
<clipPath id="clip0_184_2431">
<rect width="40" height="40" fill="white" transform="translate(39 83)"/>
</clipPath>
</defs>
</svg>
