<svg width="375" height="181" viewBox="0 0 375 181" fill="none" xmlns="http://www.w3.org/2000/svg">
<g filter="url(#filter0_d_184_2433)">
<rect x="14" y="50" width="347" height="81" rx="22" fill="white"/>
</g>
<path d="M110.825 84H112.7V74.64H116.12V72.9H107.405V74.64H110.825V84ZM119.043 84.165C120.978 84.165 122.928 82.935 122.928 80.025C122.928 77.085 120.978 75.885 119.043 75.885C117.093 75.885 115.158 77.085 115.158 80.025C115.158 82.935 117.108 84.165 119.043 84.165ZM119.043 82.62C117.633 82.62 117.018 81.54 117.018 80.025C117.018 78.42 117.708 77.46 119.043 77.46C120.438 77.46 121.068 78.54 121.068 80.025C121.068 81.66 120.378 82.62 119.043 82.62ZM124.544 87H126.389V83.115C126.974 83.775 127.814 84.12 128.669 84.12C130.709 84.12 132.074 82.77 132.074 80.01C132.074 77.25 130.739 75.885 128.924 75.885C127.739 75.885 126.914 76.455 126.389 77.085V76.035H124.544V87ZM128.264 82.65C127.604 82.65 126.884 82.305 126.389 81.66V78.465C126.824 77.94 127.559 77.46 128.324 77.46C129.509 77.46 130.229 78.345 130.229 80.025C130.229 81.795 129.659 82.65 128.264 82.65ZM135.919 84.15C137.359 84.15 138.319 83.46 138.829 82.92V84H140.689V76.035H138.829V81.57C138.154 82.185 137.479 82.605 136.669 82.605C135.859 82.605 135.484 82.2 135.484 81.315V76.035H133.624V81.75C133.624 83.325 134.524 84.15 135.919 84.15ZM142.752 87H144.597V83.115C145.182 83.775 146.022 84.12 146.877 84.12C148.917 84.12 150.282 82.77 150.282 80.01C150.282 77.25 148.947 75.885 147.132 75.885C145.947 75.885 145.122 76.455 144.597 77.085V76.035H142.752V87ZM146.472 82.65C145.812 82.65 145.092 82.305 144.597 81.66V78.465C145.032 77.94 145.767 77.46 146.532 77.46C147.717 77.46 148.437 78.345 148.437 80.025C148.437 81.795 147.867 82.65 146.472 82.65ZM156.376 84H158.221V77.505H159.961V76.035H158.221V75.33C158.221 74.475 158.761 74.295 159.421 74.295C159.631 74.295 159.931 74.325 160.051 74.355V72.93C159.916 72.915 159.301 72.855 158.956 72.855C156.931 72.855 156.376 73.89 156.376 75.225V76.035H154.996V77.505H156.376V84ZM164.439 84.165C166.374 84.165 168.324 82.935 168.324 80.025C168.324 77.085 166.374 75.885 164.439 75.885C162.489 75.885 160.554 77.085 160.554 80.025C160.554 82.935 162.504 84.165 164.439 84.165ZM164.439 82.62C163.029 82.62 162.414 81.54 162.414 80.025C162.414 78.42 163.104 77.46 164.439 77.46C165.834 77.46 166.464 78.54 166.464 80.025C166.464 81.66 165.774 82.62 164.439 82.62ZM169.939 84H171.784V78.96C172.309 78.105 173.059 77.55 174.244 77.55C174.349 77.55 174.649 77.565 174.739 77.58L174.799 75.885H174.679C173.164 75.885 172.309 76.545 171.814 77.34H171.784V76.035H169.939V84ZM183.261 84.105V85.395H184.461V84.105C186.876 83.925 188.031 82.605 188.031 80.94C188.031 78.825 186.381 78.135 184.416 77.625V74.295C185.346 74.46 185.841 75 186.321 75.735L187.596 74.745C186.996 73.83 186.126 73.005 184.461 72.81V71.715H183.261V72.78C181.191 72.915 179.901 74.13 179.901 75.855C179.901 77.91 181.581 78.54 183.321 78.99V82.68C182.181 82.515 181.521 81.84 180.891 80.94L179.586 81.825C180.231 82.89 181.311 83.925 183.261 84.105ZM183.321 74.235V77.325C182.286 77.01 181.641 76.62 181.641 75.69C181.641 74.91 182.166 74.325 183.321 74.235ZM184.416 82.695V79.29C185.571 79.635 186.291 80.085 186.291 81.105C186.291 82.17 185.556 82.59 184.416 82.695ZM189.515 84H195.2V82.35H193.385V72.9H191.615C191.12 73.365 190.4 73.59 189.545 73.62V75.315C190.19 75.315 191.015 75.09 191.555 74.805V82.35H189.515V84ZM200.547 84.21C203.337 84.21 204.927 81.915 204.927 78.45C204.927 74.985 203.337 72.69 200.547 72.69C197.757 72.69 196.137 74.985 196.137 78.45C196.137 81.915 197.757 84.21 200.547 84.21ZM200.547 82.56C198.972 82.56 198.012 81.225 198.012 78.45C198.012 75.675 198.912 74.37 200.547 74.37C202.107 74.37 203.052 75.675 203.052 78.45C203.052 81.225 202.152 82.56 200.547 82.56ZM210.713 84.21C213.503 84.21 215.093 81.915 215.093 78.45C215.093 74.985 213.503 72.69 210.713 72.69C207.923 72.69 206.303 74.985 206.303 78.45C206.303 81.915 207.923 84.21 210.713 84.21ZM210.713 82.56C209.138 82.56 208.178 81.225 208.178 78.45C208.178 75.675 209.078 74.37 210.713 74.37C212.273 74.37 213.218 75.675 213.218 78.45C213.218 81.225 212.318 82.56 210.713 82.56ZM222.094 84H223.804L225.244 78.465H225.274L226.714 84H228.439L230.809 76.035H229.129L228.229 79.395C227.974 80.265 227.839 80.835 227.599 81.87H227.569C227.344 80.85 227.209 80.25 226.954 79.365L226.069 76.035H224.569L223.729 79.305C223.474 80.22 223.339 80.79 223.099 81.87H223.069C222.859 80.85 222.709 80.235 222.469 79.335L221.599 76.035H219.724L222.094 84ZM233.54 84.12C234.725 84.12 235.67 83.805 236.48 82.98C236.48 83.43 236.555 83.67 236.66 84H238.52C238.355 83.595 238.295 83.01 238.295 82.05V78.765C238.295 76.905 237.56 75.885 235.43 75.885C233.78 75.885 232.445 76.545 231.59 77.325L232.49 78.48C233.165 77.94 234.065 77.4 235.175 77.4C236.06 77.4 236.48 77.745 236.48 78.54V78.78C232.76 79.2 231.29 80.355 231.29 82.08C231.29 83.4 232.25 84.12 233.54 84.12ZM234.215 82.695C233.54 82.695 233.105 82.365 233.105 81.735C233.105 80.865 234.275 80.325 236.48 80.025V81.78C235.895 82.335 235.16 82.695 234.215 82.695ZM243.191 84.165C245.006 84.165 246.521 83.385 246.521 81.705C246.521 79.845 244.856 79.5 243.491 79.2C242.546 78.99 241.751 78.795 241.751 78.15C241.751 77.7 242.081 77.34 243.101 77.34C243.821 77.34 244.766 77.73 245.351 78.21L246.236 77.01C245.411 76.32 244.481 75.885 242.966 75.885C241.211 75.885 240.011 76.83 240.011 78.225C240.011 80.07 241.646 80.43 243.011 80.745C243.971 80.97 244.781 81.165 244.781 81.81C244.781 82.47 244.181 82.725 243.191 82.725C242.171 82.725 241.286 82.29 240.686 81.78L239.681 82.905C240.401 83.64 241.721 84.165 243.191 84.165ZM254.807 84.165C256.622 84.165 258.137 83.385 258.137 81.705C258.137 79.845 256.472 79.5 255.107 79.2C254.162 78.99 253.367 78.795 253.367 78.15C253.367 77.7 253.697 77.34 254.717 77.34C255.437 77.34 256.382 77.73 256.967 78.21L257.852 77.01C257.027 76.32 256.097 75.885 254.582 75.885C252.827 75.885 251.627 76.83 251.627 78.225C251.627 80.07 253.262 80.43 254.627 80.745C255.587 80.97 256.397 81.165 256.397 81.81C256.397 82.47 255.797 82.725 254.807 82.725C253.787 82.725 252.902 82.29 252.302 81.78L251.297 82.905C252.017 83.64 253.337 84.165 254.807 84.165ZM261.954 84.15C263.394 84.15 264.354 83.46 264.864 82.92V84H266.724V76.035H264.864V81.57C264.189 82.185 263.514 82.605 262.704 82.605C261.894 82.605 261.519 82.2 261.519 81.315V76.035H259.659V81.75C259.659 83.325 260.559 84.15 261.954 84.15ZM272.057 84.165C273.977 84.165 274.922 83.1 275.492 81.825L273.962 81.27C273.527 82.395 272.942 82.65 272.102 82.65C270.887 82.65 270.197 81.72 270.197 80.025C270.197 78.12 271.082 77.43 272.132 77.43C273.017 77.43 273.587 77.865 273.902 78.765L275.462 78.21C274.982 76.98 274.142 75.885 272.162 75.885C270.392 75.885 268.337 76.98 268.337 80.025C268.337 82.935 270.212 84.165 272.057 84.165ZM280.128 84.165C282.048 84.165 282.993 83.1 283.563 81.825L282.033 81.27C281.598 82.395 281.013 82.65 280.173 82.65C278.958 82.65 278.268 81.72 278.268 80.025C278.268 78.12 279.153 77.43 280.203 77.43C281.088 77.43 281.658 77.865 281.973 78.765L283.533 78.21C283.053 76.98 282.213 75.885 280.233 75.885C278.463 75.885 276.408 76.98 276.408 80.025C276.408 82.935 278.283 84.165 280.128 84.165ZM288.32 84.165C289.745 84.165 290.84 83.64 291.665 82.725L290.69 81.765C290.09 82.35 289.49 82.695 288.455 82.695C287.285 82.695 286.4 82.065 286.325 80.625H291.77V80.19C291.77 76.95 290.06 75.885 288.275 75.885C286.625 75.885 284.48 76.995 284.48 80.025C284.48 82.95 286.325 84.165 288.32 84.165ZM286.355 79.245C286.535 77.895 287.36 77.385 288.26 77.385C289.37 77.385 289.97 78.03 290.075 79.245H286.355ZM296.16 84.165C297.975 84.165 299.49 83.385 299.49 81.705C299.49 79.845 297.825 79.5 296.46 79.2C295.515 78.99 294.72 78.795 294.72 78.15C294.72 77.7 295.05 77.34 296.07 77.34C296.79 77.34 297.735 77.73 298.32 78.21L299.205 77.01C298.38 76.32 297.45 75.885 295.935 75.885C294.18 75.885 292.98 76.83 292.98 78.225C292.98 80.07 294.615 80.43 295.98 80.745C296.94 80.97 297.75 81.165 297.75 81.81C297.75 82.47 297.15 82.725 296.16 82.725C295.14 82.725 294.255 82.29 293.655 81.78L292.65 82.905C293.37 83.64 294.69 84.165 296.16 84.165ZM303.865 84.165C305.68 84.165 307.195 83.385 307.195 81.705C307.195 79.845 305.53 79.5 304.165 79.2C303.22 78.99 302.425 78.795 302.425 78.15C302.425 77.7 302.755 77.34 303.775 77.34C304.495 77.34 305.44 77.73 306.025 78.21L306.91 77.01C306.085 76.32 305.155 75.885 303.64 75.885C301.885 75.885 300.685 76.83 300.685 78.225C300.685 80.07 302.32 80.43 303.685 80.745C304.645 80.97 305.455 81.165 305.455 81.81C305.455 82.47 304.855 82.725 303.865 82.725C302.845 82.725 301.96 82.29 301.36 81.78L300.355 82.905C301.075 83.64 302.395 84.165 303.865 84.165ZM309.35 84H311.195V77.505H312.935V76.035H311.195V75.33C311.195 74.475 311.735 74.295 312.395 74.295C312.605 74.295 312.905 74.325 313.025 74.355V72.93C312.89 72.915 312.275 72.855 311.93 72.855C309.905 72.855 309.35 73.89 309.35 75.225V76.035H307.97V77.505H309.35V84ZM316.475 84.15C317.915 84.15 318.875 83.46 319.385 82.92V84H321.245V76.035H319.385V81.57C318.71 82.185 318.035 82.605 317.225 82.605C316.415 82.605 316.04 82.2 316.04 81.315V76.035H314.18V81.75C314.18 83.325 315.08 84.15 316.475 84.15ZM323.383 84H325.243V72.9H323.383V84Z" fill="#09051C"/>
<path opacity="0.3" d="M107.756 105H112.642V103.908H110.906V94.64H109.758C109.296 95.074 108.582 95.284 107.784 95.312V96.404C108.386 96.404 109.198 96.194 109.702 95.928V103.908H107.756V105ZM118.109 105.196C120.601 105.196 121.987 103.054 121.987 99.82C121.987 96.586 120.601 94.444 118.109 94.444C115.631 94.444 114.203 96.586 114.203 99.82C114.203 103.054 115.631 105.196 118.109 105.196ZM118.109 104.118C116.471 104.118 115.435 102.634 115.435 99.82C115.435 97.006 116.415 95.536 118.109 95.536C119.733 95.536 120.769 97.006 120.769 99.82C120.769 102.634 119.775 104.118 118.109 104.118ZM123.846 105H125.288V103.53H123.846V105ZM131.044 105.196C133.536 105.196 134.922 103.054 134.922 99.82C134.922 96.586 133.536 94.444 131.044 94.444C128.566 94.444 127.138 96.586 127.138 99.82C127.138 103.054 128.566 105.196 131.044 105.196ZM131.044 104.118C129.406 104.118 128.37 102.634 128.37 99.82C128.37 97.006 129.35 95.536 131.044 95.536C132.668 95.536 133.704 97.006 133.704 99.82C133.704 102.634 132.71 104.118 131.044 104.118ZM140.8 105.196C143.292 105.196 144.678 103.054 144.678 99.82C144.678 96.586 143.292 94.444 140.8 94.444C138.322 94.444 136.894 96.586 136.894 99.82C136.894 103.054 138.322 105.196 140.8 105.196ZM140.8 104.118C139.162 104.118 138.126 102.634 138.126 99.82C138.126 97.006 139.106 95.536 140.8 95.536C142.424 95.536 143.46 97.006 143.46 99.82C143.46 102.634 142.466 104.118 140.8 104.118ZM149.727 105H150.917L151.939 102.032H156.055L157.077 105H158.351L154.683 94.598H153.395L149.727 105ZM152.317 100.954L153.997 96.096H154.025L155.677 100.954H152.317ZM160.359 105H161.563V99.68C162.347 98.952 163.047 98.49 163.859 98.49C164.825 98.49 165.147 98.952 165.147 99.932V105H166.351V99.68C167.121 98.952 167.807 98.49 168.633 98.49C169.599 98.49 169.921 98.952 169.921 99.932V105H171.125V99.666C171.125 98.336 170.495 97.454 168.983 97.454C167.877 97.454 166.967 98.056 166.253 98.756C166.001 97.986 165.469 97.454 164.223 97.454C163.117 97.454 162.263 98.028 161.563 98.728V97.608H160.359V105Z" fill="#3B3B3B"/>
<g clip-path="url(#clip0_184_2433)">
<path d="M57 111C68.0457 111 77 102.046 77 91C77 79.9543 68.0457 71 57 71C45.9543 71 37 79.9543 37 91C37 102.046 45.9543 111 57 111Z" fill="#FFE14D"/>
<path d="M77 91C77 79.972 68.028 71 57 71V111C68.028 111 77 102.028 77 91Z" fill="#FFBB33"/>
<path d="M57 106.234C48.6 106.234 41.7656 99.4 41.7656 91C41.7656 82.6 48.6 75.7656 57 75.7656C65.4 75.7656 72.2344 82.6 72.2344 91C72.2344 99.4 65.4 106.234 57 106.234Z" fill="#FFBB33"/>
<path d="M72.2344 91C72.2344 82.6 65.4 75.7656 57 75.7656V106.234C65.4 106.234 72.2344 99.4 72.2344 91Z" fill="#E68A2E"/>
<path d="M58.1719 89.9116V85.2783C59.5197 85.609 60.5156 86.4762 60.5156 87.473C60.5156 88.1208 61.0398 88.6449 61.6875 88.6449C62.3352 88.6449 62.8594 88.1208 62.8594 87.473C62.8594 85.2088 60.8437 83.3157 58.1719 82.8804V81.6136C58.1719 80.9659 57.6477 80.4418 57 80.4418C56.3523 80.4418 55.8281 80.9659 55.8281 81.6136V82.8804C53.1563 83.3157 51.1406 85.2088 51.1406 87.473C51.1406 89.7372 53.1563 91.6304 55.8281 92.0657V96.699C54.4803 96.3683 53.4844 95.5011 53.4844 94.5043C53.4844 93.8565 52.9602 93.3324 52.3125 93.3324C51.6648 93.3324 51.1406 93.8565 51.1406 94.5043C51.1406 96.7685 53.1563 98.6616 55.8281 99.0969V100.375C55.8281 101.023 56.3523 101.547 57 101.547C57.6477 101.547 58.1719 101.023 58.1719 100.375V99.0969C60.8437 98.6616 62.8594 96.7685 62.8594 94.5043C62.8594 92.2401 60.8437 90.3469 58.1719 89.9116ZM53.4844 87.473C53.4844 86.4762 54.4803 85.609 55.8281 85.2783V89.6677C54.4803 89.3369 53.4844 88.4697 53.4844 87.473ZM58.1719 96.699V92.3096C59.5197 92.6403 60.5156 93.5075 60.5156 94.5043C60.5156 95.5011 59.5197 96.3682 58.1719 96.699Z" fill="#FFE14D"/>
<path d="M58.1719 100.375V99.0969C60.8437 98.6616 62.8594 96.7685 62.8594 94.5043C62.8594 92.2401 60.8437 90.3469 58.1719 89.9116V85.2783C59.5197 85.609 60.5156 86.4762 60.5156 87.473C60.5156 88.1208 61.0398 88.6449 61.6875 88.6449C62.3352 88.6449 62.8594 88.1208 62.8594 87.473C62.8594 85.2088 60.8437 83.3157 58.1719 82.8804V81.6136C58.1719 80.9659 57.6477 80.4418 57 80.4418V101.547C57.6477 101.547 58.1719 101.023 58.1719 100.375ZM58.1719 92.3095C59.5197 92.6402 60.5156 93.5074 60.5156 94.5042C60.5156 95.501 59.5197 96.3682 58.1719 96.6989V92.3095Z" fill="#FFBB33"/>
<circle cx="39.0834" cy="108.917" r="1.25" fill="#FFBB33"/>
</g>
<circle cx="32" cy="67" r="2" fill="#FFE14D"/>
<circle cx="81" cy="68" r="3" fill="#FFE14D"/>
<circle cx="80" cy="112" r="4" fill="#FFBB33"/>
<defs>
<filter id="filter0_d_184_2433" x="-36" y="0" width="447" height="181" filterUnits="userSpaceOnUse" color-interpolation-filters="sRGB">
<feFlood flood-opacity="0" result="BackgroundImageFix"/>
<feColorMatrix in="SourceAlpha" type="matrix" values="0 0 0 0 0 0 0 0 0 0 0 0 0 0 0 0 0 0 127 0" result="hardAlpha"/>
<feOffset/>
<feGaussianBlur stdDeviation="25"/>
<feColorMatrix type="matrix" values="0 0 0 0 0.352941 0 0 0 0 0.423529 0 0 0 0 0.917647 0 0 0 0.07 0"/>
<feBlend mode="normal" in2="BackgroundImageFix" result="effect1_dropShadow_184_2433"/>
<feBlend mode="normal" in="SourceGraphic" in2="effect1_dropShadow_184_2433" result="shape"/>
</filter>
<clipPath id="clip0_184_2433">
<rect width="40" height="40" fill="white" transform="translate(37 71)"/>
</clipPath>
</defs>
</svg>
