<svg width="375" height="205" viewBox="0 0 375 205" fill="none" xmlns="http://www.w3.org/2000/svg">
<g filter="url(#filter0_d_184_1206)">
<rect x="14" y="50" width="347" height="105" rx="22" fill="white"/>
</g>
<circle cx="97" cy="117" r="4" fill="#09051C"/>
<circle cx="109" cy="117" r="4" fill="#09051C"/>
<circle cx="121" cy="117" r="4" fill="#09051C"/>
<circle cx="133" cy="117" r="4" fill="#09051C"/>
<circle cx="155" cy="117" r="4" fill="#09051C"/>
<circle cx="167" cy="117" r="4" fill="#09051C"/>
<circle cx="179" cy="117" r="4" fill="#09051C"/>
<circle cx="191" cy="117" r="4" fill="#09051C"/>
<path d="M215.192 123H216.376V120.768H217.632V119.648H216.376V116.288H215.192V119.648H211.12L214.976 111.48H213.656L209.8 119.648V120.768H215.192V123ZM219.238 122.992H226.758V121.864H221.03L225.126 118.168C225.686 117.667 226.096 117.181 226.358 116.712C226.624 116.243 226.758 115.645 226.758 114.92C226.758 114.232 226.595 113.611 226.27 113.056C225.95 112.501 225.51 112.061 224.95 111.736C224.395 111.405 223.768 111.24 223.07 111.24C222.36 111.24 221.72 111.4 221.15 111.72C220.584 112.035 220.136 112.469 219.806 113.024C219.475 113.573 219.31 114.2 219.31 114.904H220.51C220.504 114.451 220.611 114.032 220.83 113.648C221.054 113.264 221.358 112.955 221.742 112.72C222.126 112.485 222.563 112.368 223.054 112.368C223.528 112.368 223.955 112.483 224.334 112.712C224.712 112.936 225.011 113.24 225.23 113.624C225.454 114.008 225.566 114.437 225.566 114.912C225.566 115.312 225.491 115.696 225.342 116.064C225.192 116.432 224.896 116.816 224.454 117.216L219.246 121.92L219.238 122.992ZM231.779 123.232C232.488 123.232 233.117 123.075 233.667 122.76C234.221 122.44 234.656 122 234.971 121.44C235.291 120.875 235.451 120.224 235.451 119.488C235.451 118.768 235.304 118.133 235.011 117.584C234.717 117.035 234.307 116.608 233.779 116.304C233.251 115.995 232.637 115.843 231.939 115.848L235.315 112.624V111.48H228.659V112.608H233.819L229.859 116.264L230.451 117.2C230.648 117.104 230.861 117.027 231.091 116.968C231.32 116.909 231.539 116.88 231.747 116.88C232.493 116.88 233.093 117.12 233.547 117.6C234.005 118.075 234.235 118.704 234.235 119.488C234.235 120.261 234.013 120.885 233.571 121.36C233.133 121.835 232.531 122.08 231.763 122.096C231.213 122.107 230.717 121.965 230.275 121.672C229.832 121.379 229.515 120.947 229.323 120.376L228.203 120.712C228.448 121.491 228.891 122.107 229.531 122.56C230.176 123.008 230.925 123.232 231.779 123.232ZM240.926 123.24C241.641 123.24 242.294 123.067 242.886 122.72C243.478 122.368 243.953 121.899 244.31 121.312C244.668 120.725 244.846 120.08 244.846 119.376C244.846 118.667 244.678 118.024 244.342 117.448C244.006 116.872 243.553 116.416 242.982 116.08C242.412 115.739 241.772 115.568 241.062 115.568C240.63 115.568 240.212 115.645 239.806 115.8C239.401 115.949 239.041 116.163 238.726 116.44L238.958 112.608H244.038V111.48H237.886L237.534 117.472L238.606 117.92C238.841 117.557 239.156 117.259 239.55 117.024C239.945 116.789 240.414 116.672 240.958 116.672C241.444 116.672 241.892 116.792 242.302 117.032C242.713 117.272 243.044 117.597 243.294 118.008C243.545 118.413 243.67 118.869 243.67 119.376C243.67 119.867 243.55 120.317 243.31 120.728C243.07 121.139 242.745 121.469 242.334 121.72C241.929 121.965 241.47 122.088 240.958 122.088C240.366 122.088 239.82 121.907 239.318 121.544C238.817 121.181 238.489 120.688 238.334 120.064L237.206 120.368C237.361 120.928 237.617 121.424 237.974 121.856C238.332 122.288 238.764 122.627 239.27 122.872C239.777 123.117 240.329 123.24 240.926 123.24Z" fill="#09051C"/>
<path d="M97.672 93.048H98.984L103.144 81.16H101.784L98.376 91.16H98.344L94.952 81.16H93.512L97.672 93.048ZM104.624 82.744H106.064V81.4H104.624V82.744ZM104.656 93H106.032V84.552H104.656V93ZM110.432 93.128C111.696 93.128 112.752 92.712 113.696 91.832C113.696 92.312 113.776 92.648 113.888 93H115.296C115.12 92.568 115.056 91.944 115.056 90.92V87.192C115.056 85.432 114.256 84.376 112.24 84.376C110.56 84.376 109.296 85.048 108.32 85.944L109.04 86.808C109.872 86.088 110.816 85.528 112.096 85.528C113.136 85.528 113.696 86.04 113.696 87.096V87.48C109.504 88.072 108.048 89.288 108.048 91C108.048 92.36 108.976 93.128 110.432 93.128ZM110.832 92.04C109.952 92.04 109.408 91.608 109.408 90.792C109.408 89.736 110.48 88.952 113.696 88.44V90.808C112.912 91.576 111.952 92.04 110.832 92.04ZM124.002 93.16C125.922 93.16 127.378 92.296 127.378 90.68C127.378 88.936 126.066 88.472 124.161 88.008C122.834 87.704 122.162 87.416 122.162 86.632C122.162 86.04 122.642 85.496 123.874 85.496C124.818 85.496 125.682 85.912 126.322 86.504L127.042 85.592C126.258 84.856 125.298 84.376 123.81 84.376C121.97 84.376 120.85 85.4 120.85 86.68C120.85 88.312 122.082 88.792 123.874 89.224C125.314 89.56 126.05 89.88 126.05 90.728C126.05 91.592 125.33 92.056 124.018 92.056C122.866 92.056 122.018 91.576 121.378 90.888L120.546 91.72C121.234 92.552 122.482 93.16 124.002 93.16ZM129.341 93H130.717V86.92C131.613 86.088 132.413 85.56 133.341 85.56C134.445 85.56 134.813 86.088 134.813 87.208V93H136.189V86.92C137.069 86.088 137.853 85.56 138.797 85.56C139.901 85.56 140.269 86.088 140.269 87.208V93H141.645V86.904C141.645 85.384 140.925 84.376 139.197 84.376C137.933 84.376 136.893 85.064 136.077 85.864C135.789 84.984 135.181 84.376 133.757 84.376C132.493 84.376 131.517 85.032 130.717 85.832V84.552H129.341V93ZM146.861 93.16C148.781 93.16 150.237 92.296 150.237 90.68C150.237 88.936 148.925 88.472 147.021 88.008C145.693 87.704 145.021 87.416 145.021 86.632C145.021 86.04 145.501 85.496 146.733 85.496C147.677 85.496 148.541 85.912 149.181 86.504L149.901 85.592C149.117 84.856 148.157 84.376 146.669 84.376C144.829 84.376 143.709 85.4 143.709 86.68C143.709 88.312 144.941 88.792 146.733 89.224C148.173 89.56 148.909 89.88 148.909 90.728C148.909 91.592 148.189 92.056 146.877 92.056C145.725 92.056 144.877 91.576 144.237 90.888L143.405 91.72C144.093 92.552 145.341 93.16 146.861 93.16ZM152.36 86.248H154.008V84.552H152.36V86.248ZM152.36 93H154.008V91.32H152.36V93Z" fill="#828282"/>
<path d="M68.7833 91.2167C66.0486 88.4642 62.4393 86.7521 58.5777 86.3755C54.716 85.9988 50.8439 86.9813 47.6289 89.1536C44.414 91.3259 42.0577 94.5517 40.9662 98.2751C39.8748 101.998 40.1166 105.986 41.65 109.55C41.8098 109.881 41.8622 110.254 41.8 110.617L40.3333 117.667C40.2768 117.937 40.2883 118.217 40.3669 118.482C40.4454 118.747 40.5885 118.988 40.7833 119.183C40.943 119.342 41.1331 119.466 41.3422 119.55C41.5513 119.633 41.775 119.672 42 119.667H42.3333L49.4666 118.233C49.8292 118.19 50.1968 118.241 50.5333 118.383C54.0975 119.917 58.0849 120.159 61.8083 119.067C65.5316 117.976 68.7575 115.619 70.9297 112.404C73.102 109.189 74.0845 105.317 73.7079 101.456C73.3313 97.594 71.6191 93.9847 68.8666 91.25L68.7833 91.2167ZM50.3333 104.667C50.0036 104.667 49.6814 104.569 49.4073 104.386C49.1333 104.203 48.9196 103.942 48.7935 103.638C48.6673 103.333 48.6343 102.998 48.6986 102.675C48.763 102.352 48.9217 102.055 49.1548 101.822C49.3879 101.588 49.6848 101.43 50.0081 101.365C50.3314 101.301 50.6665 101.334 50.9711 101.46C51.2756 101.586 51.5359 101.8 51.7191 102.074C51.9022 102.348 52 102.67 52 103C52 103.442 51.8244 103.866 51.5118 104.179C51.1992 104.491 50.7753 104.667 50.3333 104.667ZM57 104.667C56.6703 104.667 56.3481 104.569 56.074 104.386C55.7999 104.203 55.5863 103.942 55.4602 103.638C55.334 103.333 55.301 102.998 55.3653 102.675C55.4296 102.352 55.5884 102.055 55.8214 101.822C56.0545 101.588 56.3515 101.43 56.6748 101.365C56.9981 101.301 57.3332 101.334 57.6378 101.46C57.9423 101.586 58.2026 101.8 58.3857 102.074C58.5689 102.348 58.6666 102.67 58.6666 103C58.6666 103.442 58.491 103.866 58.1785 104.179C57.8659 104.491 57.442 104.667 57 104.667ZM63.6666 104.667C63.337 104.667 63.0147 104.569 62.7407 104.386C62.4666 104.203 62.253 103.942 62.1268 103.638C62.0007 103.333 61.9677 102.998 62.032 102.675C62.0963 102.352 62.255 102.055 62.4881 101.822C62.7212 101.588 63.0182 101.43 63.3415 101.365C63.6648 101.301 63.9999 101.334 64.3044 101.46C64.609 101.586 64.8693 101.8 65.0524 102.074C65.2355 102.348 65.3333 102.67 65.3333 103C65.3333 103.442 65.1577 103.866 64.8451 104.179C64.5326 104.491 64.1086 104.667 63.6666 104.667Z" fill="url(#paint0_linear_184_1206)"/>
<defs>
<filter id="filter0_d_184_1206" x="-36" y="0" width="447" height="205" filterUnits="userSpaceOnUse" color-interpolation-filters="sRGB">
<feFlood flood-opacity="0" result="BackgroundImageFix"/>
<feColorMatrix in="SourceAlpha" type="matrix" values="0 0 0 0 0 0 0 0 0 0 0 0 0 0 0 0 0 0 127 0" result="hardAlpha"/>
<feOffset/>
<feGaussianBlur stdDeviation="25"/>
<feColorMatrix type="matrix" values="0 0 0 0 0.352941 0 0 0 0 0.423529 0 0 0 0 0.917647 0 0 0 0.07 0"/>
<feBlend mode="normal" in2="BackgroundImageFix" result="effect1_dropShadow_184_1206"/>
<feBlend mode="normal" in="SourceGraphic" in2="effect1_dropShadow_184_1206" result="shape"/>
</filter>
<linearGradient id="paint0_linear_184_1206" x1="40.2932" y1="84.2432" x2="78.9555" y2="90.2423" gradientUnits="userSpaceOnUse">
<stop stop-color="#53E88B"/>
<stop offset="1" stop-color="#15BE77"/>
</linearGradient>
</defs>
</svg>
